<svg xmlns="http://www.w3.org/2000/svg" xmlns:xlink="http://www.w3.org/1999/xlink" width="500" zoomAndPan="magnify" viewBox="0 0 375 374.999991" height="500" preserveAspectRatio="xMidYMid meet" version="1.0"><defs><g/><clipPath id="9a79214088"><path d="M 136.082031 144 L 203 144 L 203 249.238281 L 136.082031 249.238281 Z M 136.082031 144 " clip-rule="nonzero"/></clipPath><clipPath id="90bd8ede62"><path d="M 130.363281 176 L 157 176 L 157 217 L 130.363281 217 Z M 130.363281 176 " clip-rule="nonzero"/></clipPath><clipPath id="21b0b2160d"><path d="M 219.261719 159.371094 L 244.363281 159.371094 L 244.363281 199.921875 L 219.261719 199.921875 Z M 219.261719 159.371094 " clip-rule="nonzero"/></clipPath><clipPath id="90b1d66748"><path d="M 242.136719 160.414062 L 244.363281 160.414062 L 244.363281 198.882812 L 242.136719 198.882812 Z M 242.136719 160.414062 " clip-rule="nonzero"/></clipPath><clipPath id="bdee392a97"><path d="M 232 159.371094 L 244.363281 159.371094 L 244.363281 199.921875 L 232 199.921875 Z M 232 159.371094 " clip-rule="nonzero"/></clipPath></defs><g clip-path="url(#9a79214088)"><path fill="#69d1c5" d="M 159.800781 206.367188 L 140.378906 225.792969 C 135.011719 231.15625 135.011719 239.851562 140.378906 245.21875 C 145.738281 250.578125 154.4375 250.578125 159.800781 245.21875 L 198.648438 206.367188 C 204.015625 201.003906 204.015625 192.308594 198.648438 186.941406 L 159.800781 148.09375 C 154.4375 142.726562 145.738281 142.726562 140.378906 148.09375 C 135.011719 153.457031 135.011719 162.15625 140.378906 167.519531 L 159.800781 186.941406 C 165.167969 192.308594 165.167969 201.003906 159.800781 206.367188 " fill-opacity="1" fill-rule="nonzero"/></g><g clip-path="url(#90bd8ede62)"><path fill="#69d1c5" d="M 139.796875 200.34375 L 132.410156 207.730469 C 130.375 209.769531 130.375 213.074219 132.410156 215.113281 C 134.449219 217.152344 137.757812 217.152344 139.796875 215.113281 L 154.5625 200.34375 C 156.601562 198.308594 156.601562 195 154.5625 192.960938 L 139.796875 178.195312 C 137.757812 176.15625 134.449219 176.15625 132.410156 178.195312 C 130.375 180.234375 130.375 183.539062 132.410156 185.578125 L 139.796875 192.960938 C 141.832031 195 141.832031 198.308594 139.796875 200.34375 " fill-opacity="1" fill-rule="nonzero"/></g><path fill="#2c7380" d="M 136.105469 216.640625 C 135.75 216.640625 135.386719 216.605469 135.035156 216.53125 C 135.996094 216.328125 136.910156 215.859375 137.65625 215.113281 L 152.425781 200.34375 C 154.460938 198.308594 154.460938 195 152.425781 192.960938 L 137.65625 178.195312 C 136.910156 177.449219 135.996094 176.980469 135.035156 176.78125 C 135.386719 176.707031 135.75 176.671875 136.105469 176.671875 C 137.441406 176.671875 138.777344 177.179688 139.796875 178.195312 L 154.5625 192.960938 C 155.582031 193.980469 156.09375 195.316406 156.09375 196.652344 C 156.09375 197.988281 155.582031 199.324219 154.5625 200.34375 L 139.796875 215.113281 C 138.777344 216.132812 137.441406 216.640625 136.105469 216.640625 " fill-opacity="1" fill-rule="nonzero"/><path fill="#2c7380" d="M 191.996094 213.023438 L 172.644531 193.667969 C 167.28125 188.304688 167.28125 179.605469 172.644531 174.242188 L 179.296875 167.589844 L 198.648438 186.941406 C 201.335938 189.621094 202.675781 193.140625 202.675781 196.652344 C 202.675781 200.171875 201.335938 203.683594 198.648438 206.367188 L 191.996094 213.023438 " fill-opacity="1" fill-rule="nonzero"/><path fill="#ed6b86" d="M 215.722656 170.011719 L 235.152344 150.582031 C 240.515625 145.222656 240.515625 136.523438 235.152344 131.160156 C 229.785156 125.796875 221.089844 125.796875 215.722656 131.160156 L 176.875 170.011719 C 171.515625 175.371094 171.515625 184.070312 176.875 189.433594 L 215.722656 228.28125 C 221.089844 233.644531 229.785156 233.644531 235.152344 228.28125 C 240.515625 222.917969 240.515625 214.21875 235.152344 208.859375 L 215.722656 189.433594 C 210.363281 184.070312 210.363281 175.371094 215.722656 170.011719 " fill-opacity="1" fill-rule="nonzero"/><g clip-path="url(#21b0b2160d)"><path fill="#ed6b86" d="M 235.730469 176.027344 L 243.117188 168.644531 C 245.15625 166.605469 245.15625 163.300781 243.117188 161.261719 C 241.078125 159.222656 237.769531 159.222656 235.730469 161.261719 L 220.964844 176.027344 C 218.925781 178.066406 218.925781 181.375 220.964844 183.414062 L 235.730469 198.179688 C 237.769531 200.21875 241.078125 200.21875 243.117188 198.179688 C 245.15625 196.140625 245.15625 192.835938 243.117188 190.796875 L 235.730469 183.414062 C 233.691406 181.375 233.691406 178.066406 235.730469 176.027344 " fill-opacity="1" fill-rule="nonzero"/></g><g clip-path="url(#90b1d66748)"><path fill="#d3d2d2" d="M 242.507812 198.703125 C 242.71875 198.546875 242.925781 198.371094 243.117188 198.179688 C 244.136719 197.160156 244.644531 195.824219 244.644531 194.488281 C 244.644531 195.824219 244.136719 197.160156 243.117188 198.179688 C 242.925781 198.371094 242.71875 198.546875 242.507812 198.703125 M 243.117188 161.261719 C 242.9375 161.082031 242.746094 160.914062 242.546875 160.765625 C 242.746094 160.914062 242.9375 161.082031 243.117188 161.261719 " fill-opacity="1" fill-rule="nonzero"/></g><g clip-path="url(#bdee392a97)"><path fill="#db4a68" d="M 239.429688 199.707031 C 239.066406 199.707031 238.707031 199.671875 238.355469 199.59375 C 239.3125 199.394531 240.226562 198.925781 240.976562 198.179688 C 243.015625 196.140625 243.015625 192.835938 240.976562 190.796875 L 233.589844 183.414062 C 231.550781 181.375 231.550781 178.066406 233.589844 176.027344 L 240.976562 168.644531 C 243.015625 166.605469 243.015625 163.300781 240.976562 161.261719 C 240.226562 160.515625 239.3125 160.046875 238.355469 159.84375 C 238.707031 159.769531 239.066406 159.734375 239.429688 159.734375 C 240.523438 159.734375 241.625 160.078125 242.546875 160.765625 C 242.746094 160.914062 242.9375 161.082031 243.117188 161.261719 C 244.136719 162.28125 244.644531 163.617188 244.644531 164.953125 C 244.644531 166.289062 244.136719 167.625 243.117188 168.644531 L 235.730469 176.027344 C 234.710938 177.046875 234.199219 178.382812 234.199219 179.722656 C 234.199219 181.058594 234.710938 182.394531 235.730469 183.414062 L 243.117188 190.796875 C 244.136719 191.816406 244.644531 193.152344 244.644531 194.488281 C 244.644531 195.824219 244.136719 197.160156 243.117188 198.179688 C 242.925781 198.371094 242.71875 198.546875 242.507812 198.703125 C 241.59375 199.375 240.507812 199.707031 239.429688 199.707031 " fill-opacity="1" fill-rule="nonzero"/></g><g fill="#373636" fill-opacity="1"><g transform="translate(111.360331, 85.861828)"><g><path d="M 32.15625 -33.703125 L 32.15625 0 L 23.953125 0 L 23.953125 -13.875 L 11.1875 -13.875 L 11.1875 0 L 2.96875 0 L 2.96875 -33.703125 L 11.1875 -33.703125 L 11.1875 -20.5 L 23.953125 -20.5 L 23.953125 -33.703125 Z M 32.15625 -33.703125 "/></g></g></g><g fill="#373636" fill-opacity="1"><g transform="translate(143.712272, 85.861828)"><g><path d="M 1.34375 -13.4375 C 1.34375 -16.1875 1.863281 -18.601562 2.90625 -20.6875 C 3.945312 -22.769531 5.363281 -24.367188 7.15625 -25.484375 C 8.945312 -26.609375 10.945312 -27.171875 13.15625 -27.171875 C 15.039062 -27.171875 16.691406 -26.785156 18.109375 -26.015625 C 19.535156 -25.242188 20.632812 -24.234375 21.40625 -22.984375 L 21.40625 -26.78125 L 29.609375 -26.78125 L 29.609375 0 L 21.40625 0 L 21.40625 -3.796875 C 20.601562 -2.546875 19.488281 -1.535156 18.0625 -0.765625 C 16.644531 0.00390625 14.992188 0.390625 13.109375 0.390625 C 10.929688 0.390625 8.945312 -0.175781 7.15625 -1.3125 C 5.363281 -2.457031 3.945312 -4.078125 2.90625 -6.171875 C 1.863281 -8.265625 1.34375 -10.6875 1.34375 -13.4375 Z M 21.40625 -13.390625 C 21.40625 -15.441406 20.835938 -17.054688 19.703125 -18.234375 C 18.566406 -19.421875 17.179688 -20.015625 15.546875 -20.015625 C 13.921875 -20.015625 12.539062 -19.429688 11.40625 -18.265625 C 10.269531 -17.097656 9.703125 -15.488281 9.703125 -13.4375 C 9.703125 -11.394531 10.269531 -9.769531 11.40625 -8.5625 C 12.539062 -7.363281 13.921875 -6.765625 15.546875 -6.765625 C 17.179688 -6.765625 18.566406 -7.351562 19.703125 -8.53125 C 20.835938 -9.71875 21.40625 -11.335938 21.40625 -13.390625 Z M 21.40625 -13.390625 "/></g></g></g><g fill="#373636" fill-opacity="1"><g transform="translate(173.568224, 85.861828)"><g><path d="M 11.1875 -22.984375 C 11.988281 -24.234375 13.09375 -25.242188 14.5 -26.015625 C 15.90625 -26.785156 17.550781 -27.171875 19.4375 -27.171875 C 21.644531 -27.171875 23.644531 -26.609375 25.4375 -25.484375 C 27.226562 -24.367188 28.644531 -22.769531 29.6875 -20.6875 C 30.726562 -18.601562 31.25 -16.1875 31.25 -13.4375 C 31.25 -10.6875 30.726562 -8.265625 29.6875 -6.171875 C 28.644531 -4.078125 27.226562 -2.457031 25.4375 -1.3125 C 23.644531 -0.175781 21.644531 0.390625 19.4375 0.390625 C 17.582031 0.390625 15.941406 0.00390625 14.515625 -0.765625 C 13.097656 -1.535156 11.988281 -2.53125 11.1875 -3.75 L 11.1875 12.765625 L 2.96875 12.765625 L 2.96875 -26.78125 L 11.1875 -26.78125 Z M 22.890625 -13.4375 C 22.890625 -15.488281 22.320312 -17.097656 21.1875 -18.265625 C 20.050781 -19.429688 18.648438 -20.015625 16.984375 -20.015625 C 15.359375 -20.015625 13.976562 -19.421875 12.84375 -18.234375 C 11.707031 -17.054688 11.140625 -15.441406 11.140625 -13.390625 C 11.140625 -11.335938 11.707031 -9.71875 12.84375 -8.53125 C 13.976562 -7.351562 15.359375 -6.765625 16.984375 -6.765625 C 18.617188 -6.765625 20.007812 -7.363281 21.15625 -8.5625 C 22.3125 -9.769531 22.890625 -11.394531 22.890625 -13.4375 Z M 22.890625 -13.4375 "/></g></g></g><g fill="#373636" fill-opacity="1"><g transform="translate(203.424175, 85.861828)"><g><path d="M 11.1875 -22.984375 C 11.988281 -24.234375 13.09375 -25.242188 14.5 -26.015625 C 15.90625 -26.785156 17.550781 -27.171875 19.4375 -27.171875 C 21.644531 -27.171875 23.644531 -26.609375 25.4375 -25.484375 C 27.226562 -24.367188 28.644531 -22.769531 29.6875 -20.6875 C 30.726562 -18.601562 31.25 -16.1875 31.25 -13.4375 C 31.25 -10.6875 30.726562 -8.265625 29.6875 -6.171875 C 28.644531 -4.078125 27.226562 -2.457031 25.4375 -1.3125 C 23.644531 -0.175781 21.644531 0.390625 19.4375 0.390625 C 17.582031 0.390625 15.941406 0.00390625 14.515625 -0.765625 C 13.097656 -1.535156 11.988281 -2.53125 11.1875 -3.75 L 11.1875 12.765625 L 2.96875 12.765625 L 2.96875 -26.78125 L 11.1875 -26.78125 Z M 22.890625 -13.4375 C 22.890625 -15.488281 22.320312 -17.097656 21.1875 -18.265625 C 20.050781 -19.429688 18.648438 -20.015625 16.984375 -20.015625 C 15.359375 -20.015625 13.976562 -19.421875 12.84375 -18.234375 C 11.707031 -17.054688 11.140625 -15.441406 11.140625 -13.390625 C 11.140625 -11.335938 11.707031 -9.71875 12.84375 -8.53125 C 13.976562 -7.351562 15.359375 -6.765625 16.984375 -6.765625 C 18.617188 -6.765625 20.007812 -7.363281 21.15625 -8.5625 C 22.3125 -9.769531 22.890625 -11.394531 22.890625 -13.4375 Z M 22.890625 -13.4375 "/></g></g></g><g fill="#373636" fill-opacity="1"><g transform="translate(233.280127, 85.861828)"><g><path d="M 30.34375 -26.78125 L 13.53125 12.71875 L 4.703125 12.71875 L 10.84375 -0.90625 L -0.046875 -26.78125 L 9.125 -26.78125 L 15.3125 -10.03125 L 21.453125 -26.78125 Z M 30.34375 -26.78125 "/></g></g></g><g fill="#373636" fill-opacity="1"><g transform="translate(119.14158, 301.861814)"><g><path d="M 1.578125 -16.890625 C 1.578125 -20.222656 2.296875 -23.191406 3.734375 -25.796875 C 5.179688 -28.410156 7.191406 -30.441406 9.765625 -31.890625 C 12.335938 -33.347656 15.257812 -34.078125 18.53125 -34.078125 C 22.53125 -34.078125 25.953125 -33.019531 28.796875 -30.90625 C 31.648438 -28.800781 33.554688 -25.921875 34.515625 -22.265625 L 25.484375 -22.265625 C 24.816406 -23.679688 23.863281 -24.753906 22.625 -25.484375 C 21.394531 -26.222656 20 -26.59375 18.4375 -26.59375 C 15.90625 -26.59375 13.851562 -25.710938 12.28125 -23.953125 C 10.71875 -22.191406 9.9375 -19.835938 9.9375 -16.890625 C 9.9375 -13.953125 10.71875 -11.601562 12.28125 -9.84375 C 13.851562 -8.082031 15.90625 -7.203125 18.4375 -7.203125 C 20 -7.203125 21.394531 -7.566406 22.625 -8.296875 C 23.863281 -9.035156 24.816406 -10.109375 25.484375 -11.515625 L 34.515625 -11.515625 C 33.554688 -7.867188 31.648438 -5 28.796875 -2.90625 C 25.953125 -0.8125 22.53125 0.234375 18.53125 0.234375 C 15.257812 0.234375 12.335938 -0.488281 9.765625 -1.9375 C 7.191406 -3.394531 5.179688 -5.421875 3.734375 -8.015625 C 2.296875 -10.609375 1.578125 -13.566406 1.578125 -16.890625 Z M 1.578125 -16.890625 "/></g></g></g><g fill="#373636" fill-opacity="1"><g transform="translate(152.981517, 301.861814)"><g><path d="M 11.1875 -35.515625 L 11.1875 0 L 2.96875 0 L 2.96875 -35.515625 Z M 11.1875 -35.515625 "/></g></g></g><g fill="#373636" fill-opacity="1"><g transform="translate(164.405501, 301.861814)"><g><path d="M 7.109375 -29.5625 C 5.660156 -29.5625 4.476562 -29.984375 3.5625 -30.828125 C 2.65625 -31.679688 2.203125 -32.734375 2.203125 -33.984375 C 2.203125 -35.265625 2.65625 -36.328125 3.5625 -37.171875 C 4.476562 -38.023438 5.660156 -38.453125 7.109375 -38.453125 C 8.515625 -38.453125 9.671875 -38.023438 10.578125 -37.171875 C 11.492188 -36.328125 11.953125 -35.265625 11.953125 -33.984375 C 11.953125 -32.734375 11.492188 -31.679688 10.578125 -30.828125 C 9.671875 -29.984375 8.515625 -29.5625 7.109375 -29.5625 Z M 11.1875 -26.78125 L 11.1875 0 L 2.96875 0 L 2.96875 -26.78125 Z M 11.1875 -26.78125 "/></g></g></g><g fill="#373636" fill-opacity="1"><g transform="translate(175.829485, 301.861814)"><g><path d="M 1.34375 -13.390625 C 1.34375 -16.171875 1.910156 -18.601562 3.046875 -20.6875 C 4.179688 -22.769531 5.765625 -24.367188 7.796875 -25.484375 C 9.828125 -26.609375 12.15625 -27.171875 14.78125 -27.171875 C 18.144531 -27.171875 20.953125 -26.289062 23.203125 -24.53125 C 25.460938 -22.769531 26.941406 -20.289062 27.640625 -17.09375 L 18.90625 -17.09375 C 18.175781 -19.132812 16.753906 -20.15625 14.640625 -20.15625 C 13.140625 -20.15625 11.941406 -19.570312 11.046875 -18.40625 C 10.148438 -17.238281 9.703125 -15.566406 9.703125 -13.390625 C 9.703125 -11.210938 10.148438 -9.539062 11.046875 -8.375 C 11.941406 -7.207031 13.140625 -6.625 14.640625 -6.625 C 16.753906 -6.625 18.175781 -7.648438 18.90625 -9.703125 L 27.640625 -9.703125 C 26.941406 -6.554688 25.457031 -4.085938 23.1875 -2.296875 C 20.914062 -0.503906 18.113281 0.390625 14.78125 0.390625 C 12.15625 0.390625 9.828125 -0.164062 7.796875 -1.28125 C 5.765625 -2.40625 4.179688 -4.007812 3.046875 -6.09375 C 1.910156 -8.175781 1.34375 -10.609375 1.34375 -13.390625 Z M 1.34375 -13.390625 "/></g></g></g><g fill="#373636" fill-opacity="1"><g transform="translate(202.133442, 301.861814)"><g><path d="M 19.34375 0 L 11.1875 -11.234375 L 11.1875 0 L 2.96875 0 L 2.96875 -35.515625 L 11.1875 -35.515625 L 11.1875 -15.890625 L 19.296875 -26.78125 L 29.421875 -26.78125 L 18.28125 -13.34375 L 29.515625 0 Z M 19.34375 0 "/></g></g></g><g fill="#373636" fill-opacity="1"><g transform="translate(229.061388, 301.861814)"><g><path d="M 13.875 0.390625 C 11.539062 0.390625 9.457031 -0.0078125 7.625 -0.8125 C 5.800781 -1.613281 4.363281 -2.707031 3.3125 -4.09375 C 2.257812 -5.488281 1.664062 -7.050781 1.53125 -8.78125 L 9.640625 -8.78125 C 9.742188 -7.851562 10.175781 -7.097656 10.9375 -6.515625 C 11.707031 -5.941406 12.65625 -5.65625 13.78125 -5.65625 C 14.800781 -5.65625 15.585938 -5.851562 16.140625 -6.25 C 16.703125 -6.65625 16.984375 -7.179688 16.984375 -7.828125 C 16.984375 -8.585938 16.582031 -9.148438 15.78125 -9.515625 C 14.988281 -9.890625 13.695312 -10.300781 11.90625 -10.75 C 9.988281 -11.195312 8.390625 -11.664062 7.109375 -12.15625 C 5.828125 -12.65625 4.722656 -13.441406 3.796875 -14.515625 C 2.867188 -15.585938 2.40625 -17.035156 2.40625 -18.859375 C 2.40625 -20.398438 2.828125 -21.800781 3.671875 -23.0625 C 4.515625 -24.320312 5.757812 -25.320312 7.40625 -26.0625 C 9.0625 -26.800781 11.023438 -27.171875 13.296875 -27.171875 C 16.660156 -27.171875 19.304688 -26.335938 21.234375 -24.671875 C 23.171875 -23.003906 24.285156 -20.796875 24.578125 -18.046875 L 16.984375 -18.046875 C 16.859375 -18.972656 16.453125 -19.707031 15.765625 -20.25 C 15.078125 -20.800781 14.175781 -21.078125 13.0625 -21.078125 C 12.09375 -21.078125 11.351562 -20.890625 10.84375 -20.515625 C 10.332031 -20.148438 10.078125 -19.648438 10.078125 -19.015625 C 10.078125 -18.242188 10.484375 -17.664062 11.296875 -17.28125 C 12.117188 -16.894531 13.394531 -16.507812 15.125 -16.125 C 17.101562 -15.613281 18.71875 -15.109375 19.96875 -14.609375 C 21.21875 -14.117188 22.3125 -13.320312 23.25 -12.21875 C 24.195312 -11.113281 24.6875 -9.632812 24.71875 -7.78125 C 24.71875 -6.207031 24.273438 -4.804688 23.390625 -3.578125 C 22.515625 -2.347656 21.253906 -1.378906 19.609375 -0.671875 C 17.960938 0.0351562 16.050781 0.390625 13.875 0.390625 Z M 13.875 0.390625 "/></g></g></g><g fill="#242424" fill-opacity="1"><g transform="translate(94.312132, 344.873373)"><g><path d="M 2.65625 0.109375 C 2.1875 0.109375 1.734375 0.046875 1.296875 -0.078125 C 0.859375 -0.210938 0.503906 -0.382812 0.234375 -0.59375 L 0.703125 -1.625 C 0.960938 -1.4375 1.265625 -1.285156 1.609375 -1.171875 C 1.960938 -1.054688 2.316406 -1 2.671875 -1 C 3.054688 -1 3.34375 -1.054688 3.53125 -1.171875 C 3.71875 -1.285156 3.8125 -1.441406 3.8125 -1.640625 C 3.8125 -1.785156 3.753906 -1.90625 3.640625 -2 C 3.535156 -2.09375 3.394531 -2.164062 3.21875 -2.21875 C 3.050781 -2.269531 2.820312 -2.332031 2.53125 -2.40625 C 2.070312 -2.507812 1.695312 -2.613281 1.40625 -2.71875 C 1.125 -2.832031 0.878906 -3.007812 0.671875 -3.25 C 0.460938 -3.488281 0.359375 -3.804688 0.359375 -4.203125 C 0.359375 -4.546875 0.453125 -4.859375 0.640625 -5.140625 C 0.828125 -5.421875 1.109375 -5.640625 1.484375 -5.796875 C 1.859375 -5.960938 2.316406 -6.046875 2.859375 -6.046875 C 3.242188 -6.046875 3.613281 -6 3.96875 -5.90625 C 4.332031 -5.820312 4.65625 -5.695312 4.9375 -5.53125 L 4.5 -4.484375 C 3.957031 -4.796875 3.410156 -4.953125 2.859375 -4.953125 C 2.472656 -4.953125 2.1875 -4.890625 2 -4.765625 C 1.8125 -4.640625 1.71875 -4.472656 1.71875 -4.265625 C 1.71875 -4.066406 1.820312 -3.914062 2.03125 -3.8125 C 2.25 -3.707031 2.578125 -3.609375 3.015625 -3.515625 C 3.472656 -3.410156 3.84375 -3.300781 4.125 -3.1875 C 4.414062 -3.082031 4.664062 -2.914062 4.875 -2.6875 C 5.082031 -2.457031 5.1875 -2.144531 5.1875 -1.75 C 5.1875 -1.40625 5.085938 -1.09375 4.890625 -0.8125 C 4.703125 -0.53125 4.414062 -0.304688 4.03125 -0.140625 C 3.65625 0.0234375 3.195312 0.109375 2.65625 0.109375 Z M 2.65625 0.109375 "/></g></g></g><g fill="#242424" fill-opacity="1"><g transform="translate(101.614713, 344.873373)"><g><path d="M 3.59375 0.109375 C 2.96875 0.109375 2.40625 -0.0234375 1.90625 -0.296875 C 1.414062 -0.566406 1.03125 -0.929688 0.75 -1.390625 C 0.46875 -1.859375 0.328125 -2.382812 0.328125 -2.96875 C 0.328125 -3.550781 0.46875 -4.078125 0.75 -4.546875 C 1.03125 -5.015625 1.414062 -5.378906 1.90625 -5.640625 C 2.40625 -5.910156 2.96875 -6.046875 3.59375 -6.046875 C 4.207031 -6.046875 4.757812 -5.910156 5.25 -5.640625 C 5.75 -5.378906 6.140625 -5.015625 6.421875 -4.546875 C 6.703125 -4.078125 6.84375 -3.550781 6.84375 -2.96875 C 6.84375 -2.382812 6.703125 -1.859375 6.421875 -1.390625 C 6.140625 -0.929688 5.75 -0.566406 5.25 -0.296875 C 4.757812 -0.0234375 4.207031 0.109375 3.59375 0.109375 Z M 3.59375 -1.078125 C 3.9375 -1.078125 4.25 -1.15625 4.53125 -1.3125 C 4.820312 -1.476562 5.046875 -1.703125 5.203125 -1.984375 C 5.367188 -2.273438 5.453125 -2.601562 5.453125 -2.96875 C 5.453125 -3.34375 5.367188 -3.671875 5.203125 -3.953125 C 5.046875 -4.242188 4.820312 -4.46875 4.53125 -4.625 C 4.25 -4.789062 3.9375 -4.875 3.59375 -4.875 C 3.238281 -4.875 2.914062 -4.789062 2.625 -4.625 C 2.34375 -4.46875 2.117188 -4.242188 1.953125 -3.953125 C 1.796875 -3.671875 1.71875 -3.34375 1.71875 -2.96875 C 1.71875 -2.601562 1.796875 -2.273438 1.953125 -1.984375 C 2.117188 -1.703125 2.34375 -1.476562 2.625 -1.3125 C 2.914062 -1.15625 3.238281 -1.078125 3.59375 -1.078125 Z M 3.59375 -1.078125 "/></g></g></g><g fill="#242424" fill-opacity="1"><g transform="translate(110.668556, 344.873373)"><g><path d="M 0.703125 -5.953125 L 2.078125 -5.953125 L 2.078125 -1.125 L 5.0625 -1.125 L 5.0625 0 L 0.703125 0 Z M 0.703125 -5.953125 "/></g></g></g><g fill="#242424" fill-opacity="1"><g transform="translate(117.682092, 344.873373)"><g><path d="M 3.34375 0.109375 C 2.5 0.109375 1.835938 -0.125 1.359375 -0.59375 C 0.890625 -1.070312 0.65625 -1.75 0.65625 -2.625 L 0.65625 -5.953125 L 2.03125 -5.953125 L 2.03125 -2.671875 C 2.03125 -1.609375 2.472656 -1.078125 3.359375 -1.078125 C 3.785156 -1.078125 4.113281 -1.203125 4.34375 -1.453125 C 4.570312 -1.710938 4.6875 -2.117188 4.6875 -2.671875 L 4.6875 -5.953125 L 6.046875 -5.953125 L 6.046875 -2.625 C 6.046875 -1.75 5.804688 -1.070312 5.328125 -0.59375 C 4.859375 -0.125 4.195312 0.109375 3.34375 0.109375 Z M 3.34375 0.109375 "/></g></g></g><g fill="#242424" fill-opacity="1"><g transform="translate(126.259869, 344.873373)"><g><path d="M 1.9375 -4.828125 L 0.03125 -4.828125 L 0.03125 -5.953125 L 5.21875 -5.953125 L 5.21875 -4.828125 L 3.3125 -4.828125 L 3.3125 0 L 1.9375 0 Z M 1.9375 -4.828125 "/></g></g></g><g fill="#242424" fill-opacity="1"><g transform="translate(133.392421, 344.873373)"><g><path d="M 0.703125 -5.953125 L 2.078125 -5.953125 L 2.078125 0 L 0.703125 0 Z M 0.703125 -5.953125 "/></g></g></g><g fill="#242424" fill-opacity="1"><g transform="translate(138.059612, 344.873373)"><g><path d="M 3.59375 0.109375 C 2.96875 0.109375 2.40625 -0.0234375 1.90625 -0.296875 C 1.414062 -0.566406 1.03125 -0.929688 0.75 -1.390625 C 0.46875 -1.859375 0.328125 -2.382812 0.328125 -2.96875 C 0.328125 -3.550781 0.46875 -4.078125 0.75 -4.546875 C 1.03125 -5.015625 1.414062 -5.378906 1.90625 -5.640625 C 2.40625 -5.910156 2.96875 -6.046875 3.59375 -6.046875 C 4.207031 -6.046875 4.757812 -5.910156 5.25 -5.640625 C 5.75 -5.378906 6.140625 -5.015625 6.421875 -4.546875 C 6.703125 -4.078125 6.84375 -3.550781 6.84375 -2.96875 C 6.84375 -2.382812 6.703125 -1.859375 6.421875 -1.390625 C 6.140625 -0.929688 5.75 -0.566406 5.25 -0.296875 C 4.757812 -0.0234375 4.207031 0.109375 3.59375 0.109375 Z M 3.59375 -1.078125 C 3.9375 -1.078125 4.25 -1.15625 4.53125 -1.3125 C 4.820312 -1.476562 5.046875 -1.703125 5.203125 -1.984375 C 5.367188 -2.273438 5.453125 -2.601562 5.453125 -2.96875 C 5.453125 -3.34375 5.367188 -3.671875 5.203125 -3.953125 C 5.046875 -4.242188 4.820312 -4.46875 4.53125 -4.625 C 4.25 -4.789062 3.9375 -4.875 3.59375 -4.875 C 3.238281 -4.875 2.914062 -4.789062 2.625 -4.625 C 2.34375 -4.46875 2.117188 -4.242188 1.953125 -3.953125 C 1.796875 -3.671875 1.71875 -3.34375 1.71875 -2.96875 C 1.71875 -2.601562 1.796875 -2.273438 1.953125 -1.984375 C 2.117188 -1.703125 2.34375 -1.476562 2.625 -1.3125 C 2.914062 -1.15625 3.238281 -1.078125 3.59375 -1.078125 Z M 3.59375 -1.078125 "/></g></g></g><g fill="#242424" fill-opacity="1"><g transform="translate(147.113455, 344.873373)"><g><path d="M 6.15625 -5.953125 L 6.15625 0 L 5.03125 0 L 2.0625 -3.609375 L 2.0625 0 L 0.703125 0 L 0.703125 -5.953125 L 1.84375 -5.953125 L 4.796875 -2.34375 L 4.796875 -5.953125 Z M 6.15625 -5.953125 "/></g></g></g><g fill="#242424" fill-opacity="1"><g transform="translate(155.86126, 344.873373)"><g><path d="M 2.65625 0.109375 C 2.1875 0.109375 1.734375 0.046875 1.296875 -0.078125 C 0.859375 -0.210938 0.503906 -0.382812 0.234375 -0.59375 L 0.703125 -1.625 C 0.960938 -1.4375 1.265625 -1.285156 1.609375 -1.171875 C 1.960938 -1.054688 2.316406 -1 2.671875 -1 C 3.054688 -1 3.34375 -1.054688 3.53125 -1.171875 C 3.71875 -1.285156 3.8125 -1.441406 3.8125 -1.640625 C 3.8125 -1.785156 3.753906 -1.90625 3.640625 -2 C 3.535156 -2.09375 3.394531 -2.164062 3.21875 -2.21875 C 3.050781 -2.269531 2.820312 -2.332031 2.53125 -2.40625 C 2.070312 -2.507812 1.695312 -2.613281 1.40625 -2.71875 C 1.125 -2.832031 0.878906 -3.007812 0.671875 -3.25 C 0.460938 -3.488281 0.359375 -3.804688 0.359375 -4.203125 C 0.359375 -4.546875 0.453125 -4.859375 0.640625 -5.140625 C 0.828125 -5.421875 1.109375 -5.640625 1.484375 -5.796875 C 1.859375 -5.960938 2.316406 -6.046875 2.859375 -6.046875 C 3.242188 -6.046875 3.613281 -6 3.96875 -5.90625 C 4.332031 -5.820312 4.65625 -5.695312 4.9375 -5.53125 L 4.5 -4.484375 C 3.957031 -4.796875 3.410156 -4.953125 2.859375 -4.953125 C 2.472656 -4.953125 2.1875 -4.890625 2 -4.765625 C 1.8125 -4.640625 1.71875 -4.472656 1.71875 -4.265625 C 1.71875 -4.066406 1.820312 -3.914062 2.03125 -3.8125 C 2.25 -3.707031 2.578125 -3.609375 3.015625 -3.515625 C 3.472656 -3.410156 3.84375 -3.300781 4.125 -3.1875 C 4.414062 -3.082031 4.664062 -2.914062 4.875 -2.6875 C 5.082031 -2.457031 5.1875 -2.144531 5.1875 -1.75 C 5.1875 -1.40625 5.085938 -1.09375 4.890625 -0.8125 C 4.703125 -0.53125 4.414062 -0.304688 4.03125 -0.140625 C 3.65625 0.0234375 3.195312 0.109375 2.65625 0.109375 Z M 2.65625 0.109375 "/></g></g></g><g fill="#242424" fill-opacity="1"><g transform="translate(163.163841, 344.873373)"><g/></g></g><g fill="#242424" fill-opacity="1"><g transform="translate(167.44847, 344.873373)"><g><path d="M 9.703125 -5.953125 L 7.75 0 L 6.265625 0 L 4.96875 -4.03125 L 3.609375 0 L 2.140625 0 L 0.1875 -5.953125 L 1.609375 -5.953125 L 2.953125 -1.765625 L 4.359375 -5.953125 L 5.640625 -5.953125 L 7 -1.734375 L 8.375 -5.953125 Z M 9.703125 -5.953125 "/></g></g></g><g fill="#242424" fill-opacity="1"><g transform="translate(179.214227, 344.873373)"><g><path d="M 5.3125 -1.109375 L 5.3125 0 L 0.703125 0 L 0.703125 -5.953125 L 5.203125 -5.953125 L 5.203125 -4.84375 L 2.078125 -4.84375 L 2.078125 -3.546875 L 4.84375 -3.546875 L 4.84375 -2.484375 L 2.078125 -2.484375 L 2.078125 -1.109375 Z M 5.3125 -1.109375 "/></g></g></g><g fill="#242424" fill-opacity="1"><g transform="translate(186.797356, 344.873373)"><g><path d="M 5.078125 -3.09375 C 5.410156 -2.988281 5.671875 -2.804688 5.859375 -2.546875 C 6.054688 -2.296875 6.15625 -1.988281 6.15625 -1.625 C 6.15625 -1.101562 5.953125 -0.703125 5.546875 -0.421875 C 5.148438 -0.140625 4.5625 0 3.78125 0 L 0.703125 0 L 0.703125 -5.953125 L 3.609375 -5.953125 C 4.335938 -5.953125 4.894531 -5.8125 5.28125 -5.53125 C 5.664062 -5.25 5.859375 -4.875 5.859375 -4.40625 C 5.859375 -4.113281 5.789062 -3.851562 5.65625 -3.625 C 5.519531 -3.40625 5.328125 -3.226562 5.078125 -3.09375 Z M 2.078125 -4.90625 L 2.078125 -3.515625 L 3.4375 -3.515625 C 3.78125 -3.515625 4.039062 -3.570312 4.21875 -3.6875 C 4.394531 -3.8125 4.484375 -3.988281 4.484375 -4.21875 C 4.484375 -4.445312 4.394531 -4.617188 4.21875 -4.734375 C 4.039062 -4.847656 3.78125 -4.90625 3.4375 -4.90625 Z M 3.6875 -1.03125 C 4.039062 -1.03125 4.3125 -1.085938 4.5 -1.203125 C 4.6875 -1.328125 4.78125 -1.515625 4.78125 -1.765625 C 4.78125 -2.253906 4.414062 -2.5 3.6875 -2.5 L 2.078125 -2.5 L 2.078125 -1.03125 Z M 3.6875 -1.03125 "/></g></g></g><g fill="#242424" fill-opacity="1"><g transform="translate(195.179604, 344.873373)"><g/></g></g><g fill="#242424" fill-opacity="1"><g transform="translate(199.464233, 344.873373)"><g><path d="M 5.3125 -1.109375 L 5.3125 0 L 0.703125 0 L 0.703125 -5.953125 L 5.203125 -5.953125 L 5.203125 -4.84375 L 2.078125 -4.84375 L 2.078125 -3.546875 L 4.84375 -3.546875 L 4.84375 -2.484375 L 2.078125 -2.484375 L 2.078125 -1.109375 Z M 5.3125 -1.109375 "/></g></g></g><g fill="#242424" fill-opacity="1"><g transform="translate(207.047363, 344.873373)"><g><path d="M 1.9375 -4.828125 L 0.03125 -4.828125 L 0.03125 -5.953125 L 5.21875 -5.953125 L 5.21875 -4.828125 L 3.3125 -4.828125 L 3.3125 0 L 1.9375 0 Z M 1.9375 -4.828125 "/></g></g></g><g fill="#242424" fill-opacity="1"><g transform="translate(214.179915, 344.873373)"><g/></g></g><g fill="#242424" fill-opacity="1"><g transform="translate(218.464544, 344.873373)"><g><path d="M 0.703125 -5.953125 L 3.40625 -5.953125 C 4.050781 -5.953125 4.617188 -5.828125 5.109375 -5.578125 C 5.609375 -5.328125 5.992188 -4.976562 6.265625 -4.53125 C 6.546875 -4.09375 6.6875 -3.570312 6.6875 -2.96875 C 6.6875 -2.375 6.546875 -1.851562 6.265625 -1.40625 C 5.992188 -0.957031 5.609375 -0.609375 5.109375 -0.359375 C 4.617188 -0.117188 4.050781 0 3.40625 0 L 0.703125 0 Z M 3.34375 -1.125 C 3.9375 -1.125 4.410156 -1.289062 4.765625 -1.625 C 5.117188 -1.957031 5.296875 -2.40625 5.296875 -2.96875 C 5.296875 -3.539062 5.117188 -3.988281 4.765625 -4.3125 C 4.410156 -4.644531 3.9375 -4.8125 3.34375 -4.8125 L 2.078125 -4.8125 L 2.078125 -1.125 Z M 3.34375 -1.125 "/></g></g></g><g fill="#242424" fill-opacity="1"><g transform="translate(227.365363, 344.873373)"><g><path d="M 0.703125 -5.953125 L 2.078125 -5.953125 L 2.078125 0 L 0.703125 0 Z M 0.703125 -5.953125 "/></g></g></g><g fill="#242424" fill-opacity="1"><g transform="translate(232.032553, 344.873373)"><g><path d="M 4.71875 -3.0625 L 5.984375 -3.0625 L 5.984375 -0.65625 C 5.660156 -0.40625 5.285156 -0.210938 4.859375 -0.078125 C 4.429688 0.046875 4.003906 0.109375 3.578125 0.109375 C 2.960938 0.109375 2.40625 -0.0195312 1.90625 -0.28125 C 1.414062 -0.550781 1.03125 -0.921875 0.75 -1.390625 C 0.46875 -1.859375 0.328125 -2.382812 0.328125 -2.96875 C 0.328125 -3.5625 0.46875 -4.09375 0.75 -4.5625 C 1.03125 -5.03125 1.421875 -5.394531 1.921875 -5.65625 C 2.421875 -5.914062 2.984375 -6.046875 3.609375 -6.046875 C 4.128906 -6.046875 4.597656 -5.957031 5.015625 -5.78125 C 5.441406 -5.613281 5.800781 -5.363281 6.09375 -5.03125 L 5.203125 -4.203125 C 4.785156 -4.648438 4.273438 -4.875 3.671875 -4.875 C 3.296875 -4.875 2.957031 -4.796875 2.65625 -4.640625 C 2.363281 -4.484375 2.132812 -4.257812 1.96875 -3.96875 C 1.800781 -3.675781 1.71875 -3.34375 1.71875 -2.96875 C 1.71875 -2.601562 1.800781 -2.273438 1.96875 -1.984375 C 2.132812 -1.703125 2.363281 -1.476562 2.65625 -1.3125 C 2.945312 -1.15625 3.28125 -1.078125 3.65625 -1.078125 C 4.050781 -1.078125 4.40625 -1.160156 4.71875 -1.328125 Z M 4.71875 -3.0625 "/></g></g></g><g fill="#242424" fill-opacity="1"><g transform="translate(240.465803, 344.873373)"><g><path d="M 0.703125 -5.953125 L 2.078125 -5.953125 L 2.078125 0 L 0.703125 0 Z M 0.703125 -5.953125 "/></g></g></g><g fill="#242424" fill-opacity="1"><g transform="translate(245.132993, 344.873373)"><g><path d="M 1.9375 -4.828125 L 0.03125 -4.828125 L 0.03125 -5.953125 L 5.21875 -5.953125 L 5.21875 -4.828125 L 3.3125 -4.828125 L 3.3125 0 L 1.9375 0 Z M 1.9375 -4.828125 "/></g></g></g><g fill="#242424" fill-opacity="1"><g transform="translate(252.265545, 344.873373)"><g><path d="M 4.625 -1.28125 L 1.859375 -1.28125 L 1.328125 0 L -0.078125 0 L 2.578125 -5.953125 L 3.9375 -5.953125 L 6.59375 0 L 5.15625 0 Z M 4.1875 -2.328125 L 3.25 -4.59375 L 2.296875 -2.328125 Z M 4.1875 -2.328125 "/></g></g></g><g fill="#242424" fill-opacity="1"><g transform="translate(260.65629, 344.873373)"><g><path d="M 0.703125 -5.953125 L 2.078125 -5.953125 L 2.078125 -1.125 L 5.0625 -1.125 L 5.0625 0 L 0.703125 0 Z M 0.703125 -5.953125 "/></g></g></g><g fill="#242424" fill-opacity="1"><g transform="translate(267.669826, 344.873373)"><g><path d="M 5.3125 -1.109375 L 5.3125 0 L 0.703125 0 L 0.703125 -5.953125 L 5.203125 -5.953125 L 5.203125 -4.84375 L 2.078125 -4.84375 L 2.078125 -3.546875 L 4.84375 -3.546875 L 4.84375 -2.484375 L 2.078125 -2.484375 L 2.078125 -1.109375 Z M 5.3125 -1.109375 "/></g></g></g><g fill="#242424" fill-opacity="1"><g transform="translate(275.252955, 344.873373)"><g><path d="M 2.65625 0.109375 C 2.1875 0.109375 1.734375 0.046875 1.296875 -0.078125 C 0.859375 -0.210938 0.503906 -0.382812 0.234375 -0.59375 L 0.703125 -1.625 C 0.960938 -1.4375 1.265625 -1.285156 1.609375 -1.171875 C 1.960938 -1.054688 2.316406 -1 2.671875 -1 C 3.054688 -1 3.34375 -1.054688 3.53125 -1.171875 C 3.71875 -1.285156 3.8125 -1.441406 3.8125 -1.640625 C 3.8125 -1.785156 3.753906 -1.90625 3.640625 -2 C 3.535156 -2.09375 3.394531 -2.164062 3.21875 -2.21875 C 3.050781 -2.269531 2.820312 -2.332031 2.53125 -2.40625 C 2.070312 -2.507812 1.695312 -2.613281 1.40625 -2.71875 C 1.125 -2.832031 0.878906 -3.007812 0.671875 -3.25 C 0.460938 -3.488281 0.359375 -3.804688 0.359375 -4.203125 C 0.359375 -4.546875 0.453125 -4.859375 0.640625 -5.140625 C 0.828125 -5.421875 1.109375 -5.640625 1.484375 -5.796875 C 1.859375 -5.960938 2.316406 -6.046875 2.859375 -6.046875 C 3.242188 -6.046875 3.613281 -6 3.96875 -5.90625 C 4.332031 -5.820312 4.65625 -5.695312 4.9375 -5.53125 L 4.5 -4.484375 C 3.957031 -4.796875 3.410156 -4.953125 2.859375 -4.953125 C 2.472656 -4.953125 2.1875 -4.890625 2 -4.765625 C 1.8125 -4.640625 1.71875 -4.472656 1.71875 -4.265625 C 1.71875 -4.066406 1.820312 -3.914062 2.03125 -3.8125 C 2.25 -3.707031 2.578125 -3.609375 3.015625 -3.515625 C 3.472656 -3.410156 3.84375 -3.300781 4.125 -3.1875 C 4.414062 -3.082031 4.664062 -2.914062 4.875 -2.6875 C 5.082031 -2.457031 5.1875 -2.144531 5.1875 -1.75 C 5.1875 -1.40625 5.085938 -1.09375 4.890625 -0.8125 C 4.703125 -0.53125 4.414062 -0.304688 4.03125 -0.140625 C 3.65625 0.0234375 3.195312 0.109375 2.65625 0.109375 Z M 2.65625 0.109375 "/></g></g></g></svg>