<svg xmlns="http://www.w3.org/2000/svg" xmlns:xlink="http://www.w3.org/1999/xlink" width="500" zoomAndPan="magnify" viewBox="0 0 375 374.999991" height="500" preserveAspectRatio="xMidYMid meet" version="1.0"><defs><g/><clipPath id="b9ca0899be"><path d="M 122.113281 113 L 209 113 L 209 249.28125 L 122.113281 249.28125 Z M 122.113281 113 " clip-rule="nonzero"/></clipPath><clipPath id="74c723ff33"><path d="M 229.675781 133.140625 L 262.46875 133.140625 L 262.46875 185.578125 L 229.675781 185.578125 Z M 229.675781 133.140625 " clip-rule="nonzero"/></clipPath><clipPath id="84eb2ce72b"><path d="M 259.253906 134.484375 L 262.46875 134.484375 L 262.46875 184 L 259.253906 184 Z M 259.253906 134.484375 " clip-rule="nonzero"/></clipPath><clipPath id="db180e14da"><path d="M 246 133.140625 L 262.46875 133.140625 L 262.46875 185.578125 L 246 185.578125 Z M 246 133.140625 " clip-rule="nonzero"/></clipPath></defs><g clip-path="url(#b9ca0899be)"><path fill="#69d1c5" d="M 152.785156 193.910156 L 127.671875 219.027344 C 120.734375 225.964844 120.734375 237.210938 127.671875 244.148438 C 134.605469 251.078125 145.847656 251.078125 152.785156 244.148438 L 203.023438 193.910156 C 209.960938 186.972656 209.960938 175.730469 203.023438 168.792969 L 152.785156 118.554688 C 145.847656 111.617188 134.605469 111.617188 127.671875 118.554688 C 120.734375 125.496094 120.734375 136.738281 127.671875 143.675781 L 152.785156 168.792969 C 159.722656 175.730469 159.722656 186.972656 152.785156 193.910156 " fill-opacity="1" fill-rule="nonzero"/></g><path fill="#69d1c5" d="M 126.921875 186.125 L 117.367188 195.671875 C 114.734375 198.308594 114.734375 202.582031 117.367188 205.21875 C 120.003906 207.855469 124.285156 207.855469 126.921875 205.21875 L 146.011719 186.125 C 148.648438 183.488281 148.648438 179.210938 146.011719 176.574219 L 126.921875 157.480469 C 124.285156 154.84375 120.003906 154.84375 117.367188 157.480469 C 114.734375 160.117188 114.734375 164.390625 117.367188 167.027344 L 126.921875 176.574219 C 129.550781 179.210938 129.550781 183.488281 126.921875 186.125 " fill-opacity="1" fill-rule="nonzero"/><path fill="#2c7380" d="M 122.148438 207.195312 C 121.683594 207.195312 121.21875 207.148438 120.761719 207.050781 C 122.003906 206.789062 123.1875 206.1875 124.152344 205.21875 L 143.25 186.125 C 145.878906 183.488281 145.878906 179.210938 143.25 176.574219 L 124.152344 157.480469 C 123.1875 156.519531 122.003906 155.910156 120.761719 155.652344 C 121.21875 155.558594 121.683594 155.507812 122.148438 155.507812 C 123.875 155.507812 125.601562 156.164062 126.921875 157.480469 L 146.011719 176.574219 C 147.328125 177.894531 147.992188 179.621094 147.992188 181.347656 C 147.992188 183.078125 147.328125 184.804688 146.011719 186.125 L 126.921875 205.21875 C 125.601562 206.539062 123.875 207.195312 122.148438 207.195312 " fill-opacity="1" fill-rule="nonzero"/><path fill="#2c7380" d="M 194.417969 202.515625 L 169.394531 177.488281 C 162.460938 170.550781 162.460938 159.304688 169.394531 152.367188 L 177.996094 143.765625 L 203.023438 168.792969 C 206.492188 172.257812 208.226562 176.804688 208.226562 181.347656 C 208.226562 185.898438 206.492188 190.441406 203.023438 193.910156 L 194.417969 202.515625 " fill-opacity="1" fill-rule="nonzero"/><path fill="#ed6b86" d="M 225.101562 146.894531 L 250.222656 121.777344 C 257.160156 114.84375 257.160156 103.59375 250.222656 96.660156 C 243.285156 89.722656 232.039062 89.722656 225.101562 96.660156 L 174.867188 146.894531 C 167.933594 153.828125 167.933594 165.078125 174.867188 172.011719 L 225.101562 222.246094 C 232.039062 229.183594 243.285156 229.183594 250.222656 222.246094 C 257.160156 215.3125 257.160156 204.0625 250.222656 197.132812 L 225.101562 172.011719 C 218.167969 165.078125 218.167969 153.828125 225.101562 146.894531 " fill-opacity="1" fill-rule="nonzero"/><g clip-path="url(#74c723ff33)"><path fill="#ed6b86" d="M 250.972656 154.679688 L 260.519531 145.132812 C 263.15625 142.496094 263.15625 138.21875 260.519531 135.582031 C 257.882812 132.945312 253.609375 132.945312 250.972656 135.582031 L 231.875 154.679688 C 229.238281 157.316406 229.238281 161.589844 231.875 164.226562 L 250.972656 183.324219 C 253.609375 185.960938 257.882812 185.960938 260.519531 183.324219 C 263.15625 180.6875 263.15625 176.414062 260.519531 173.777344 L 250.972656 164.226562 C 248.335938 161.589844 248.335938 157.316406 250.972656 154.679688 " fill-opacity="1" fill-rule="nonzero"/></g><g clip-path="url(#84eb2ce72b)"><path fill="#d3d2d2" d="M 259.734375 184 C 260.007812 183.796875 260.273438 183.570312 260.519531 183.324219 C 261.839844 182.003906 262.496094 180.277344 262.496094 178.550781 C 262.496094 180.277344 261.839844 182.003906 260.519531 183.324219 C 260.273438 183.570312 260.007812 183.796875 259.734375 184 M 260.519531 135.582031 C 260.289062 135.351562 260.042969 135.136719 259.785156 134.941406 C 260.042969 135.136719 260.289062 135.351562 260.519531 135.582031 " fill-opacity="1" fill-rule="nonzero"/></g><g clip-path="url(#db180e14da)"><path fill="#db4a68" d="M 255.753906 185.296875 C 255.285156 185.296875 254.824219 185.25 254.367188 185.152344 C 255.605469 184.894531 256.785156 184.285156 257.753906 183.324219 C 260.390625 180.6875 260.390625 176.414062 257.753906 173.777344 L 248.203125 164.226562 C 245.570312 161.589844 245.570312 157.316406 248.203125 154.679688 L 257.753906 145.132812 C 260.390625 142.496094 260.390625 138.21875 257.753906 135.582031 C 256.785156 134.617188 255.605469 134.011719 254.367188 133.75 C 254.824219 133.65625 255.285156 133.609375 255.753906 133.609375 C 257.171875 133.609375 258.59375 134.054688 259.785156 134.941406 C 260.042969 135.136719 260.289062 135.351562 260.519531 135.582031 C 261.839844 136.902344 262.496094 138.628906 262.496094 140.355469 C 262.496094 142.085938 261.839844 143.8125 260.519531 145.132812 L 250.972656 154.679688 C 249.65625 155.996094 248.992188 157.726562 248.992188 159.453125 C 248.992188 161.179688 249.65625 162.910156 250.972656 164.226562 L 260.519531 173.777344 C 261.839844 175.09375 262.496094 176.820312 262.496094 178.550781 C 262.496094 180.277344 261.839844 182.003906 260.519531 183.324219 C 260.273438 183.570312 260.007812 183.796875 259.734375 184 C 258.550781 184.867188 257.148438 185.296875 255.753906 185.296875 " fill-opacity="1" fill-rule="nonzero"/></g><g fill="#373636" fill-opacity="1"><g transform="translate(90.148009, 85.13767)"><g><path d="M 41.578125 -43.5625 L 41.578125 0 L 30.96875 0 L 30.96875 -17.9375 L 14.453125 -17.9375 L 14.453125 0 L 3.84375 0 L 3.84375 -43.5625 L 14.453125 -43.5625 L 14.453125 -26.5 L 30.96875 -26.5 L 30.96875 -43.5625 Z M 41.578125 -43.5625 "/></g></g></g><g fill="#373636" fill-opacity="1"><g transform="translate(131.982442, 85.13767)"><g><path d="M 1.734375 -17.375 C 1.734375 -20.9375 2.40625 -24.0625 3.75 -26.75 C 5.09375 -29.4375 6.921875 -31.503906 9.234375 -32.953125 C 11.554688 -34.398438 14.144531 -35.125 17 -35.125 C 19.445312 -35.125 21.585938 -34.625 23.421875 -33.625 C 25.265625 -32.632812 26.6875 -31.335938 27.6875 -29.734375 L 27.6875 -34.625 L 38.296875 -34.625 L 38.296875 0 L 27.6875 0 L 27.6875 -4.90625 C 26.644531 -3.289062 25.203125 -1.984375 23.359375 -0.984375 C 21.523438 0.00390625 19.382812 0.5 16.9375 0.5 C 14.125 0.5 11.554688 -0.234375 9.234375 -1.703125 C 6.921875 -3.171875 5.09375 -5.257812 3.75 -7.96875 C 2.40625 -10.6875 1.734375 -13.820312 1.734375 -17.375 Z M 27.6875 -17.3125 C 27.6875 -19.957031 26.953125 -22.046875 25.484375 -23.578125 C 24.015625 -25.109375 22.222656 -25.875 20.109375 -25.875 C 17.992188 -25.875 16.203125 -25.117188 14.734375 -23.609375 C 13.265625 -22.097656 12.53125 -20.019531 12.53125 -17.375 C 12.53125 -14.726562 13.265625 -12.628906 14.734375 -11.078125 C 16.203125 -9.523438 17.992188 -8.75 20.109375 -8.75 C 22.222656 -8.75 24.015625 -9.515625 25.484375 -11.046875 C 26.953125 -12.578125 27.6875 -14.664062 27.6875 -17.3125 Z M 27.6875 -17.3125 "/></g></g></g><g fill="#373636" fill-opacity="1"><g transform="translate(170.5893, 85.13767)"><g><path d="M 14.453125 -29.734375 C 15.492188 -31.335938 16.921875 -32.632812 18.734375 -33.625 C 20.554688 -34.625 22.691406 -35.125 25.140625 -35.125 C 27.992188 -35.125 30.578125 -34.398438 32.890625 -32.953125 C 35.210938 -31.503906 37.046875 -29.4375 38.390625 -26.75 C 39.734375 -24.0625 40.40625 -20.9375 40.40625 -17.375 C 40.40625 -13.820312 39.734375 -10.6875 38.390625 -7.96875 C 37.046875 -5.257812 35.210938 -3.171875 32.890625 -1.703125 C 30.578125 -0.234375 27.992188 0.5 25.140625 0.5 C 22.734375 0.5 20.609375 0.00390625 18.765625 -0.984375 C 16.929688 -1.984375 15.492188 -3.269531 14.453125 -4.84375 L 14.453125 16.515625 L 3.84375 16.515625 L 3.84375 -34.625 L 14.453125 -34.625 Z M 29.609375 -17.375 C 29.609375 -20.019531 28.875 -22.097656 27.40625 -23.609375 C 25.9375 -25.117188 24.125 -25.875 21.96875 -25.875 C 19.863281 -25.875 18.078125 -25.109375 16.609375 -23.578125 C 15.140625 -22.046875 14.40625 -19.957031 14.40625 -17.3125 C 14.40625 -14.664062 15.140625 -12.578125 16.609375 -11.046875 C 18.078125 -9.515625 19.863281 -8.75 21.96875 -8.75 C 24.082031 -8.75 25.882812 -9.523438 27.375 -11.078125 C 28.863281 -12.628906 29.609375 -14.726562 29.609375 -17.375 Z M 29.609375 -17.375 "/></g></g></g><g fill="#373636" fill-opacity="1"><g transform="translate(209.196158, 85.13767)"><g><path d="M 14.453125 -29.734375 C 15.492188 -31.335938 16.921875 -32.632812 18.734375 -33.625 C 20.554688 -34.625 22.691406 -35.125 25.140625 -35.125 C 27.992188 -35.125 30.578125 -34.398438 32.890625 -32.953125 C 35.210938 -31.503906 37.046875 -29.4375 38.390625 -26.75 C 39.734375 -24.0625 40.40625 -20.9375 40.40625 -17.375 C 40.40625 -13.820312 39.734375 -10.6875 38.390625 -7.96875 C 37.046875 -5.257812 35.210938 -3.171875 32.890625 -1.703125 C 30.578125 -0.234375 27.992188 0.5 25.140625 0.5 C 22.734375 0.5 20.609375 0.00390625 18.765625 -0.984375 C 16.929688 -1.984375 15.492188 -3.269531 14.453125 -4.84375 L 14.453125 16.515625 L 3.84375 16.515625 L 3.84375 -34.625 L 14.453125 -34.625 Z M 29.609375 -17.375 C 29.609375 -20.019531 28.875 -22.097656 27.40625 -23.609375 C 25.9375 -25.117188 24.125 -25.875 21.96875 -25.875 C 19.863281 -25.875 18.078125 -25.109375 16.609375 -23.578125 C 15.140625 -22.046875 14.40625 -19.957031 14.40625 -17.3125 C 14.40625 -14.664062 15.140625 -12.578125 16.609375 -11.046875 C 18.078125 -9.515625 19.863281 -8.75 21.96875 -8.75 C 24.082031 -8.75 25.882812 -9.523438 27.375 -11.078125 C 28.863281 -12.628906 29.609375 -14.726562 29.609375 -17.375 Z M 29.609375 -17.375 "/></g></g></g><g fill="#373636" fill-opacity="1"><g transform="translate(247.803016, 85.13767)"><g><path d="M 39.21875 -34.625 L 17.5 16.453125 L 6.078125 16.453125 L 14.03125 -1.171875 L -0.0625 -34.625 L 11.796875 -34.625 L 19.796875 -12.96875 L 27.734375 -34.625 Z M 39.21875 -34.625 "/></g></g></g><g fill="#373636" fill-opacity="1"><g transform="translate(100.209976, 294.620546)"><g><path d="M 2.046875 -21.84375 C 2.046875 -26.144531 2.976562 -29.984375 4.84375 -33.359375 C 6.707031 -36.734375 9.300781 -39.359375 12.625 -41.234375 C 15.957031 -43.117188 19.734375 -44.0625 23.953125 -44.0625 C 29.128906 -44.0625 33.554688 -42.695312 37.234375 -39.96875 C 40.921875 -37.238281 43.382812 -33.515625 44.625 -28.796875 L 32.953125 -28.796875 C 32.085938 -30.617188 30.859375 -32.003906 29.265625 -32.953125 C 27.671875 -33.898438 25.859375 -34.375 23.828125 -34.375 C 20.554688 -34.375 17.90625 -33.238281 15.875 -30.96875 C 13.851562 -28.695312 12.84375 -25.65625 12.84375 -21.84375 C 12.84375 -18.039062 13.851562 -15 15.875 -12.71875 C 17.90625 -10.445312 20.554688 -9.3125 23.828125 -9.3125 C 25.859375 -9.3125 27.671875 -9.785156 29.265625 -10.734375 C 30.859375 -11.691406 32.085938 -13.078125 32.953125 -14.890625 L 44.625 -14.890625 C 43.382812 -10.171875 40.921875 -6.457031 37.234375 -3.75 C 33.554688 -1.039062 29.128906 0.3125 23.953125 0.3125 C 19.734375 0.3125 15.957031 -0.628906 12.625 -2.515625 C 9.300781 -4.398438 6.707031 -7.015625 4.84375 -10.359375 C 2.976562 -13.710938 2.046875 -17.539062 2.046875 -21.84375 Z M 2.046875 -21.84375 "/></g></g></g><g fill="#373636" fill-opacity="1"><g transform="translate(143.968542, 294.620546)"><g><path d="M 14.453125 -45.921875 L 14.453125 0 L 3.84375 0 L 3.84375 -45.921875 Z M 14.453125 -45.921875 "/></g></g></g><g fill="#373636" fill-opacity="1"><g transform="translate(158.740944, 294.620546)"><g><path d="M 9.1875 -38.234375 C 7.320312 -38.234375 5.800781 -38.78125 4.625 -39.875 C 3.445312 -40.96875 2.859375 -42.320312 2.859375 -43.9375 C 2.859375 -45.59375 3.445312 -46.96875 4.625 -48.0625 C 5.800781 -49.164062 7.320312 -49.71875 9.1875 -49.71875 C 11.007812 -49.71875 12.507812 -49.164062 13.6875 -48.0625 C 14.863281 -46.96875 15.453125 -45.59375 15.453125 -43.9375 C 15.453125 -42.320312 14.863281 -40.96875 13.6875 -39.875 C 12.507812 -38.78125 11.007812 -38.234375 9.1875 -38.234375 Z M 14.453125 -34.625 L 14.453125 0 L 3.84375 0 L 3.84375 -34.625 Z M 14.453125 -34.625 "/></g></g></g><g fill="#373636" fill-opacity="1"><g transform="translate(173.513346, 294.620546)"><g><path d="M 1.734375 -17.3125 C 1.734375 -20.914062 2.46875 -24.0625 3.9375 -26.75 C 5.40625 -29.4375 7.453125 -31.503906 10.078125 -32.953125 C 12.710938 -34.398438 15.722656 -35.125 19.109375 -35.125 C 23.453125 -35.125 27.082031 -33.984375 30 -31.703125 C 32.914062 -29.429688 34.832031 -26.226562 35.75 -22.09375 L 24.453125 -22.09375 C 23.503906 -24.738281 21.660156 -26.0625 18.921875 -26.0625 C 16.984375 -26.0625 15.429688 -25.304688 14.265625 -23.796875 C 13.109375 -22.285156 12.53125 -20.125 12.53125 -17.3125 C 12.53125 -14.5 13.109375 -12.335938 14.265625 -10.828125 C 15.429688 -9.316406 16.984375 -8.5625 18.921875 -8.5625 C 21.660156 -8.5625 23.503906 -9.882812 24.453125 -12.53125 L 35.75 -12.53125 C 34.832031 -8.476562 32.90625 -5.289062 29.96875 -2.96875 C 27.03125 -0.65625 23.410156 0.5 19.109375 0.5 C 15.722656 0.5 12.710938 -0.222656 10.078125 -1.671875 C 7.453125 -3.117188 5.40625 -5.1875 3.9375 -7.875 C 2.46875 -10.570312 1.734375 -13.71875 1.734375 -17.3125 Z M 1.734375 -17.3125 "/></g></g></g><g fill="#373636" fill-opacity="1"><g transform="translate(207.527105, 294.620546)"><g><path d="M 25.015625 0 L 14.453125 -14.515625 L 14.453125 0 L 3.84375 0 L 3.84375 -45.921875 L 14.453125 -45.921875 L 14.453125 -20.546875 L 24.953125 -34.625 L 38.046875 -34.625 L 23.640625 -17.25 L 38.171875 0 Z M 25.015625 0 "/></g></g></g><g fill="#373636" fill-opacity="1"><g transform="translate(242.347747, 294.620546)"><g><path d="M 17.9375 0.5 C 14.914062 0.5 12.222656 -0.015625 9.859375 -1.046875 C 7.503906 -2.085938 5.644531 -3.503906 4.28125 -5.296875 C 2.914062 -7.097656 2.148438 -9.117188 1.984375 -11.359375 L 12.46875 -11.359375 C 12.59375 -10.160156 13.148438 -9.1875 14.140625 -8.4375 C 15.140625 -7.695312 16.363281 -7.328125 17.8125 -7.328125 C 19.132812 -7.328125 20.15625 -7.582031 20.875 -8.09375 C 21.601562 -8.613281 21.96875 -9.285156 21.96875 -10.109375 C 21.96875 -11.109375 21.445312 -11.84375 20.40625 -12.3125 C 19.375 -12.789062 17.703125 -13.320312 15.390625 -13.90625 C 12.910156 -14.476562 10.84375 -15.082031 9.1875 -15.71875 C 7.53125 -16.363281 6.101562 -17.378906 4.90625 -18.765625 C 3.707031 -20.160156 3.109375 -22.035156 3.109375 -24.390625 C 3.109375 -26.378906 3.65625 -28.1875 4.75 -29.8125 C 5.84375 -31.445312 7.453125 -32.738281 9.578125 -33.6875 C 11.710938 -34.644531 14.25 -35.125 17.1875 -35.125 C 21.53125 -35.125 24.953125 -34.046875 27.453125 -31.890625 C 29.960938 -29.742188 31.40625 -26.890625 31.78125 -23.328125 L 21.96875 -23.328125 C 21.800781 -24.535156 21.269531 -25.488281 20.375 -26.1875 C 19.488281 -26.894531 18.320312 -27.25 16.875 -27.25 C 15.632812 -27.25 14.679688 -27.007812 14.015625 -26.53125 C 13.359375 -26.050781 13.03125 -25.398438 13.03125 -24.578125 C 13.03125 -23.585938 13.554688 -22.84375 14.609375 -22.34375 C 15.671875 -21.84375 17.316406 -21.347656 19.546875 -20.859375 C 22.109375 -20.191406 24.195312 -19.535156 25.8125 -18.890625 C 27.425781 -18.253906 28.84375 -17.222656 30.0625 -15.796875 C 31.289062 -14.367188 31.925781 -12.453125 31.96875 -10.046875 C 31.96875 -8.023438 31.394531 -6.21875 30.25 -4.625 C 29.113281 -3.03125 27.476562 -1.773438 25.34375 -0.859375 C 23.21875 0.046875 20.75 0.5 17.9375 0.5 Z M 17.9375 0.5 "/></g></g></g><g fill="#242424" fill-opacity="1"><g transform="translate(68.102913, 344.130851)"><g><path d="M 3 0.125 C 2.394531 0.125 1.8125 0.046875 1.25 -0.109375 C 0.695312 -0.273438 0.25 -0.476562 -0.09375 -0.71875 L 0.640625 -2.09375 C 0.992188 -1.84375 1.390625 -1.644531 1.828125 -1.5 C 2.265625 -1.363281 2.710938 -1.296875 3.171875 -1.296875 C 3.671875 -1.296875 4.0625 -1.375 4.34375 -1.53125 C 4.632812 -1.695312 4.78125 -1.921875 4.78125 -2.203125 C 4.78125 -2.429688 4.664062 -2.601562 4.4375 -2.71875 C 4.207031 -2.84375 3.84375 -2.972656 3.34375 -3.109375 C 2.84375 -3.253906 2.4375 -3.394531 2.125 -3.53125 C 1.8125 -3.664062 1.535156 -3.867188 1.296875 -4.140625 C 1.066406 -4.410156 0.953125 -4.769531 0.953125 -5.21875 C 0.953125 -5.738281 1.097656 -6.195312 1.390625 -6.59375 C 1.679688 -6.988281 2.09375 -7.289062 2.625 -7.5 C 3.15625 -7.71875 3.773438 -7.828125 4.484375 -7.828125 C 5.003906 -7.828125 5.492188 -7.769531 5.953125 -7.65625 C 6.410156 -7.539062 6.804688 -7.378906 7.140625 -7.171875 L 6.46875 -5.8125 C 6.175781 -6.007812 5.851562 -6.15625 5.5 -6.25 C 5.144531 -6.351562 4.769531 -6.40625 4.375 -6.40625 C 3.875 -6.40625 3.472656 -6.316406 3.171875 -6.140625 C 2.878906 -5.960938 2.734375 -5.734375 2.734375 -5.453125 C 2.734375 -5.285156 2.796875 -5.144531 2.921875 -5.03125 C 3.046875 -4.914062 3.203125 -4.820312 3.390625 -4.75 C 3.585938 -4.6875 3.859375 -4.609375 4.203125 -4.515625 C 4.691406 -4.378906 5.09375 -4.242188 5.40625 -4.109375 C 5.726562 -3.972656 6 -3.773438 6.21875 -3.515625 C 6.445312 -3.253906 6.5625 -2.910156 6.5625 -2.484375 C 6.5625 -1.953125 6.410156 -1.488281 6.109375 -1.09375 C 5.816406 -0.707031 5.398438 -0.40625 4.859375 -0.1875 C 4.328125 0.0195312 3.707031 0.125 3 0.125 Z M 3 0.125 "/></g></g></g><g fill="#242424" fill-opacity="1"><g transform="translate(77.545911, 344.130851)"><g><path d="M 4.3125 0.125 C 3.539062 0.125 2.875 -0.0078125 2.3125 -0.28125 C 1.75 -0.5625 1.316406 -0.953125 1.015625 -1.453125 C 0.710938 -1.960938 0.5625 -2.550781 0.5625 -3.21875 C 0.5625 -4.082031 0.757812 -4.863281 1.15625 -5.5625 C 1.5625 -6.269531 2.125 -6.820312 2.84375 -7.21875 C 3.5625 -7.625 4.390625 -7.828125 5.328125 -7.828125 C 6.097656 -7.828125 6.765625 -7.6875 7.328125 -7.40625 C 7.890625 -7.132812 8.320312 -6.742188 8.625 -6.234375 C 8.925781 -5.734375 9.078125 -5.148438 9.078125 -4.484375 C 9.078125 -3.609375 8.875 -2.820312 8.46875 -2.125 C 8.070312 -1.425781 7.507812 -0.875 6.78125 -0.46875 C 6.0625 -0.0703125 5.238281 0.125 4.3125 0.125 Z M 4.46875 -1.390625 C 5.03125 -1.390625 5.523438 -1.523438 5.953125 -1.796875 C 6.378906 -2.066406 6.703125 -2.425781 6.921875 -2.875 C 7.148438 -3.332031 7.265625 -3.835938 7.265625 -4.390625 C 7.265625 -4.972656 7.082031 -5.4375 6.71875 -5.78125 C 6.351562 -6.132812 5.835938 -6.3125 5.171875 -6.3125 C 4.609375 -6.3125 4.113281 -6.175781 3.6875 -5.90625 C 3.257812 -5.632812 2.929688 -5.269531 2.703125 -4.8125 C 2.472656 -4.363281 2.359375 -3.863281 2.359375 -3.3125 C 2.359375 -2.726562 2.539062 -2.257812 2.90625 -1.90625 C 3.28125 -1.5625 3.800781 -1.390625 4.46875 -1.390625 Z M 4.46875 -1.390625 "/></g></g></g><g fill="#242424" fill-opacity="1"><g transform="translate(89.253474, 344.130851)"><g><path d="M 1.859375 -7.703125 L 3.65625 -7.703125 L 2.390625 -1.453125 L 6.265625 -1.453125 L 5.96875 0 L 0.3125 0 Z M 1.859375 -7.703125 "/></g></g></g><g fill="#242424" fill-opacity="1"><g transform="translate(98.322707, 344.130851)"><g><path d="M 3.953125 0.125 C 2.984375 0.125 2.222656 -0.113281 1.671875 -0.59375 C 1.117188 -1.070312 0.84375 -1.726562 0.84375 -2.5625 C 0.84375 -2.800781 0.875 -3.078125 0.9375 -3.390625 L 1.796875 -7.703125 L 3.59375 -7.703125 L 2.734375 -3.421875 C 2.679688 -3.179688 2.65625 -2.960938 2.65625 -2.765625 C 2.65625 -2.304688 2.78125 -1.960938 3.03125 -1.734375 C 3.289062 -1.503906 3.660156 -1.390625 4.140625 -1.390625 C 4.691406 -1.390625 5.125 -1.550781 5.4375 -1.875 C 5.757812 -2.195312 6 -2.710938 6.15625 -3.421875 L 7 -7.703125 L 8.75 -7.703125 L 7.890625 -3.3125 C 7.421875 -1.019531 6.109375 0.125 3.953125 0.125 Z M 3.953125 0.125 "/></g></g></g><g fill="#242424" fill-opacity="1"><g transform="translate(109.414666, 344.130851)"><g><path d="M 3.15625 -6.25 L 0.6875 -6.25 L 0.984375 -7.703125 L 7.703125 -7.703125 L 7.40625 -6.25 L 4.953125 -6.25 L 3.703125 0 L 1.90625 0 Z M 3.15625 -6.25 "/></g></g></g><g fill="#242424" fill-opacity="1"><g transform="translate(118.6378, 344.130851)"><g><path d="M 1.859375 -7.703125 L 3.65625 -7.703125 L 2.109375 0 L 0.3125 0 Z M 1.859375 -7.703125 "/></g></g></g><g fill="#242424" fill-opacity="1"><g transform="translate(124.672963, 344.130851)"><g><path d="M 4.3125 0.125 C 3.539062 0.125 2.875 -0.0078125 2.3125 -0.28125 C 1.75 -0.5625 1.316406 -0.953125 1.015625 -1.453125 C 0.710938 -1.960938 0.5625 -2.550781 0.5625 -3.21875 C 0.5625 -4.082031 0.757812 -4.863281 1.15625 -5.5625 C 1.5625 -6.269531 2.125 -6.820312 2.84375 -7.21875 C 3.5625 -7.625 4.390625 -7.828125 5.328125 -7.828125 C 6.097656 -7.828125 6.765625 -7.6875 7.328125 -7.40625 C 7.890625 -7.132812 8.320312 -6.742188 8.625 -6.234375 C 8.925781 -5.734375 9.078125 -5.148438 9.078125 -4.484375 C 9.078125 -3.609375 8.875 -2.820312 8.46875 -2.125 C 8.070312 -1.425781 7.507812 -0.875 6.78125 -0.46875 C 6.0625 -0.0703125 5.238281 0.125 4.3125 0.125 Z M 4.46875 -1.390625 C 5.03125 -1.390625 5.523438 -1.523438 5.953125 -1.796875 C 6.378906 -2.066406 6.703125 -2.425781 6.921875 -2.875 C 7.148438 -3.332031 7.265625 -3.835938 7.265625 -4.390625 C 7.265625 -4.972656 7.082031 -5.4375 6.71875 -5.78125 C 6.351562 -6.132812 5.835938 -6.3125 5.171875 -6.3125 C 4.609375 -6.3125 4.113281 -6.175781 3.6875 -5.90625 C 3.257812 -5.632812 2.929688 -5.269531 2.703125 -4.8125 C 2.472656 -4.363281 2.359375 -3.863281 2.359375 -3.3125 C 2.359375 -2.726562 2.539062 -2.257812 2.90625 -1.90625 C 3.28125 -1.5625 3.800781 -1.390625 4.46875 -1.390625 Z M 4.46875 -1.390625 "/></g></g></g><g fill="#242424" fill-opacity="1"><g transform="translate(136.380526, 344.130851)"><g><path d="M 8.921875 -7.703125 L 7.375 0 L 5.921875 0 L 3.046875 -4.8125 L 2.078125 0 L 0.3125 0 L 1.859375 -7.703125 L 3.328125 -7.703125 L 6.203125 -2.875 L 7.15625 -7.703125 Z M 8.921875 -7.703125 "/></g></g></g><g fill="#242424" fill-opacity="1"><g transform="translate(147.69235, 344.130851)"><g><path d="M 3 0.125 C 2.394531 0.125 1.8125 0.046875 1.25 -0.109375 C 0.695312 -0.273438 0.25 -0.476562 -0.09375 -0.71875 L 0.640625 -2.09375 C 0.992188 -1.84375 1.390625 -1.644531 1.828125 -1.5 C 2.265625 -1.363281 2.710938 -1.296875 3.171875 -1.296875 C 3.671875 -1.296875 4.0625 -1.375 4.34375 -1.53125 C 4.632812 -1.695312 4.78125 -1.921875 4.78125 -2.203125 C 4.78125 -2.429688 4.664062 -2.601562 4.4375 -2.71875 C 4.207031 -2.84375 3.84375 -2.972656 3.34375 -3.109375 C 2.84375 -3.253906 2.4375 -3.394531 2.125 -3.53125 C 1.8125 -3.664062 1.535156 -3.867188 1.296875 -4.140625 C 1.066406 -4.410156 0.953125 -4.769531 0.953125 -5.21875 C 0.953125 -5.738281 1.097656 -6.195312 1.390625 -6.59375 C 1.679688 -6.988281 2.09375 -7.289062 2.625 -7.5 C 3.15625 -7.71875 3.773438 -7.828125 4.484375 -7.828125 C 5.003906 -7.828125 5.492188 -7.769531 5.953125 -7.65625 C 6.410156 -7.539062 6.804688 -7.378906 7.140625 -7.171875 L 6.46875 -5.8125 C 6.175781 -6.007812 5.851562 -6.15625 5.5 -6.25 C 5.144531 -6.351562 4.769531 -6.40625 4.375 -6.40625 C 3.875 -6.40625 3.472656 -6.316406 3.171875 -6.140625 C 2.878906 -5.960938 2.734375 -5.734375 2.734375 -5.453125 C 2.734375 -5.285156 2.796875 -5.144531 2.921875 -5.03125 C 3.046875 -4.914062 3.203125 -4.820312 3.390625 -4.75 C 3.585938 -4.6875 3.859375 -4.609375 4.203125 -4.515625 C 4.691406 -4.378906 5.09375 -4.242188 5.40625 -4.109375 C 5.726562 -3.972656 6 -3.773438 6.21875 -3.515625 C 6.445312 -3.253906 6.5625 -2.910156 6.5625 -2.484375 C 6.5625 -1.953125 6.410156 -1.488281 6.109375 -1.09375 C 5.816406 -0.707031 5.398438 -0.40625 4.859375 -0.1875 C 4.328125 0.0195312 3.707031 0.125 3 0.125 Z M 3 0.125 "/></g></g></g><g fill="#242424" fill-opacity="1"><g transform="translate(157.135348, 344.130851)"><g/></g></g><g fill="#242424" fill-opacity="1"><g transform="translate(162.67582, 344.130851)"><g><path d="M 13.515625 -7.703125 L 9.4375 0 L 7.53125 0 L 6.859375 -5.1875 L 4.078125 0 L 2.171875 0 L 1.1875 -7.703125 L 2.953125 -7.703125 L 3.625 -2.28125 L 6.515625 -7.703125 L 8.171875 -7.703125 L 8.828125 -2.25 L 11.734375 -7.703125 Z M 13.515625 -7.703125 "/></g></g></g><g fill="#242424" fill-opacity="1"><g transform="translate(177.89017, 344.130851)"><g><path d="M 3.34375 -6.265625 L 3.015625 -4.59375 L 6.59375 -4.59375 L 6.3125 -3.21875 L 2.734375 -3.21875 L 2.375 -1.4375 L 6.578125 -1.4375 L 6.28125 0 L 0.3125 0 L 1.859375 -7.703125 L 7.671875 -7.703125 L 7.375 -6.265625 Z M 3.34375 -6.265625 "/></g></g></g><g fill="#242424" fill-opacity="1"><g transform="translate(187.695946, 344.130851)"><g><path d="M 6.78125 -3.96875 C 7.113281 -3.832031 7.367188 -3.632812 7.546875 -3.375 C 7.734375 -3.113281 7.828125 -2.800781 7.828125 -2.4375 C 7.828125 -1.632812 7.507812 -1.023438 6.875 -0.609375 C 6.238281 -0.203125 5.398438 0 4.359375 0 L 0.3125 0 L 1.859375 -7.703125 L 5.578125 -7.703125 C 6.398438 -7.703125 7.035156 -7.546875 7.484375 -7.234375 C 7.929688 -6.929688 8.15625 -6.5 8.15625 -5.9375 C 8.15625 -5.46875 8.03125 -5.066406 7.78125 -4.734375 C 7.539062 -4.398438 7.207031 -4.144531 6.78125 -3.96875 Z M 3.359375 -6.359375 L 2.984375 -4.546875 L 4.8125 -4.546875 C 5.28125 -4.546875 5.644531 -4.640625 5.90625 -4.828125 C 6.164062 -5.015625 6.296875 -5.28125 6.296875 -5.625 C 6.296875 -6.113281 5.914062 -6.359375 5.15625 -6.359375 Z M 4.46875 -1.34375 C 4.96875 -1.34375 5.351562 -1.4375 5.625 -1.625 C 5.90625 -1.8125 6.046875 -2.085938 6.046875 -2.453125 C 6.046875 -2.984375 5.660156 -3.25 4.890625 -3.25 L 2.734375 -3.25 L 2.359375 -1.34375 Z M 4.46875 -1.34375 "/></g></g></g><g fill="#242424" fill-opacity="1"><g transform="translate(198.535066, 344.130851)"><g/></g></g><g fill="#242424" fill-opacity="1"><g transform="translate(204.075539, 344.130851)"><g><path d="M 3.34375 -6.265625 L 3.015625 -4.59375 L 6.59375 -4.59375 L 6.3125 -3.21875 L 2.734375 -3.21875 L 2.375 -1.4375 L 6.578125 -1.4375 L 6.28125 0 L 0.3125 0 L 1.859375 -7.703125 L 7.671875 -7.703125 L 7.375 -6.265625 Z M 3.34375 -6.265625 "/></g></g></g><g fill="#242424" fill-opacity="1"><g transform="translate(213.881315, 344.130851)"><g><path d="M 3.15625 -6.25 L 0.6875 -6.25 L 0.984375 -7.703125 L 7.703125 -7.703125 L 7.40625 -6.25 L 4.953125 -6.25 L 3.703125 0 L 1.90625 0 Z M 3.15625 -6.25 "/></g></g></g><g fill="#242424" fill-opacity="1"><g transform="translate(223.104448, 344.130851)"><g/></g></g><g fill="#242424" fill-opacity="1"><g transform="translate(228.644921, 344.130851)"><g><path d="M 1.859375 -7.703125 L 5.078125 -7.703125 C 5.867188 -7.703125 6.546875 -7.570312 7.109375 -7.3125 C 7.679688 -7.050781 8.117188 -6.675781 8.421875 -6.1875 C 8.722656 -5.707031 8.875 -5.140625 8.875 -4.484375 C 8.875 -3.585938 8.671875 -2.800781 8.265625 -2.125 C 7.867188 -1.445312 7.304688 -0.921875 6.578125 -0.546875 C 5.859375 -0.179688 5.023438 0 4.078125 0 L 0.3125 0 Z M 4.140625 -1.46875 C 4.734375 -1.46875 5.253906 -1.59375 5.703125 -1.84375 C 6.148438 -2.09375 6.488281 -2.4375 6.71875 -2.875 C 6.957031 -3.320312 7.078125 -3.828125 7.078125 -4.390625 C 7.078125 -4.972656 6.890625 -5.425781 6.515625 -5.75 C 6.140625 -6.070312 5.597656 -6.234375 4.890625 -6.234375 L 3.359375 -6.234375 L 2.390625 -1.46875 Z M 4.140625 -1.46875 "/></g></g></g><g fill="#242424" fill-opacity="1"><g transform="translate(240.154607, 344.130851)"><g><path d="M 1.859375 -7.703125 L 3.65625 -7.703125 L 2.109375 0 L 0.3125 0 Z M 1.859375 -7.703125 "/></g></g></g><g fill="#242424" fill-opacity="1"><g transform="translate(246.189771, 344.130851)"><g><path d="M 6.328125 -3.96875 L 7.953125 -3.96875 L 7.3125 -0.796875 C 6.925781 -0.503906 6.472656 -0.273438 5.953125 -0.109375 C 5.441406 0.046875 4.910156 0.125 4.359375 0.125 C 3.597656 0.125 2.929688 -0.0078125 2.359375 -0.28125 C 1.785156 -0.5625 1.34375 -0.953125 1.03125 -1.453125 C 0.71875 -1.960938 0.5625 -2.550781 0.5625 -3.21875 C 0.5625 -4.082031 0.757812 -4.867188 1.15625 -5.578125 C 1.5625 -6.285156 2.128906 -6.835938 2.859375 -7.234375 C 3.597656 -7.628906 4.445312 -7.828125 5.40625 -7.828125 C 6.132812 -7.828125 6.769531 -7.710938 7.3125 -7.484375 C 7.851562 -7.265625 8.285156 -6.929688 8.609375 -6.484375 L 7.34375 -5.453125 C 7.082031 -5.753906 6.789062 -5.972656 6.46875 -6.109375 C 6.144531 -6.242188 5.765625 -6.3125 5.328125 -6.3125 C 4.734375 -6.3125 4.210938 -6.179688 3.765625 -5.921875 C 3.328125 -5.660156 2.984375 -5.300781 2.734375 -4.84375 C 2.484375 -4.394531 2.359375 -3.890625 2.359375 -3.328125 C 2.359375 -2.734375 2.550781 -2.257812 2.9375 -1.90625 C 3.320312 -1.5625 3.875 -1.390625 4.59375 -1.390625 C 5.050781 -1.390625 5.476562 -1.476562 5.875 -1.65625 Z M 6.328125 -3.96875 "/></g></g></g><g fill="#242424" fill-opacity="1"><g transform="translate(257.094841, 344.130851)"><g><path d="M 1.859375 -7.703125 L 3.65625 -7.703125 L 2.109375 0 L 0.3125 0 Z M 1.859375 -7.703125 "/></g></g></g><g fill="#242424" fill-opacity="1"><g transform="translate(263.130004, 344.130851)"><g><path d="M 3.15625 -6.25 L 0.6875 -6.25 L 0.984375 -7.703125 L 7.703125 -7.703125 L 7.40625 -6.25 L 4.953125 -6.25 L 3.703125 0 L 1.90625 0 Z M 3.15625 -6.25 "/></g></g></g><g fill="#242424" fill-opacity="1"><g transform="translate(272.353138, 344.130851)"><g><path d="M 5.796875 -1.65625 L 2.21875 -1.65625 L 1.203125 0 L -0.6875 0 L 4.296875 -7.703125 L 6.046875 -7.703125 L 7.9375 0 L 6.15625 0 Z M 5.5 -3 L 4.84375 -5.96875 L 3.03125 -3 Z M 5.5 -3 "/></g></g></g><g fill="#242424" fill-opacity="1"><g transform="translate(283.203245, 344.130851)"><g><path d="M 1.859375 -7.703125 L 3.65625 -7.703125 L 2.390625 -1.453125 L 6.265625 -1.453125 L 5.96875 0 L 0.3125 0 Z M 1.859375 -7.703125 "/></g></g></g><g fill="#242424" fill-opacity="1"><g transform="translate(292.272478, 344.130851)"><g><path d="M 3.34375 -6.265625 L 3.015625 -4.59375 L 6.59375 -4.59375 L 6.3125 -3.21875 L 2.734375 -3.21875 L 2.375 -1.4375 L 6.578125 -1.4375 L 6.28125 0 L 0.3125 0 L 1.859375 -7.703125 L 7.671875 -7.703125 L 7.375 -6.265625 Z M 3.34375 -6.265625 "/></g></g></g><g fill="#242424" fill-opacity="1"><g transform="translate(302.078254, 344.130851)"><g><path d="M 3 0.125 C 2.394531 0.125 1.8125 0.046875 1.25 -0.109375 C 0.695312 -0.273438 0.25 -0.476562 -0.09375 -0.71875 L 0.640625 -2.09375 C 0.992188 -1.84375 1.390625 -1.644531 1.828125 -1.5 C 2.265625 -1.363281 2.710938 -1.296875 3.171875 -1.296875 C 3.671875 -1.296875 4.0625 -1.375 4.34375 -1.53125 C 4.632812 -1.695312 4.78125 -1.921875 4.78125 -2.203125 C 4.78125 -2.429688 4.664062 -2.601562 4.4375 -2.71875 C 4.207031 -2.84375 3.84375 -2.972656 3.34375 -3.109375 C 2.84375 -3.253906 2.4375 -3.394531 2.125 -3.53125 C 1.8125 -3.664062 1.535156 -3.867188 1.296875 -4.140625 C 1.066406 -4.410156 0.953125 -4.769531 0.953125 -5.21875 C 0.953125 -5.738281 1.097656 -6.195312 1.390625 -6.59375 C 1.679688 -6.988281 2.09375 -7.289062 2.625 -7.5 C 3.15625 -7.71875 3.773438 -7.828125 4.484375 -7.828125 C 5.003906 -7.828125 5.492188 -7.769531 5.953125 -7.65625 C 6.410156 -7.539062 6.804688 -7.378906 7.140625 -7.171875 L 6.46875 -5.8125 C 6.175781 -6.007812 5.851562 -6.15625 5.5 -6.25 C 5.144531 -6.351562 4.769531 -6.40625 4.375 -6.40625 C 3.875 -6.40625 3.472656 -6.316406 3.171875 -6.140625 C 2.878906 -5.960938 2.734375 -5.734375 2.734375 -5.453125 C 2.734375 -5.285156 2.796875 -5.144531 2.921875 -5.03125 C 3.046875 -4.914062 3.203125 -4.820312 3.390625 -4.75 C 3.585938 -4.6875 3.859375 -4.609375 4.203125 -4.515625 C 4.691406 -4.378906 5.09375 -4.242188 5.40625 -4.109375 C 5.726562 -3.972656 6 -3.773438 6.21875 -3.515625 C 6.445312 -3.253906 6.5625 -2.910156 6.5625 -2.484375 C 6.5625 -1.953125 6.410156 -1.488281 6.109375 -1.09375 C 5.816406 -0.707031 5.398438 -0.40625 4.859375 -0.1875 C 4.328125 0.0195312 3.707031 0.125 3 0.125 Z M 3 0.125 "/></g></g></g></svg>