<svg xmlns="http://www.w3.org/2000/svg" xmlns:xlink="http://www.w3.org/1999/xlink" width="500" zoomAndPan="magnify" viewBox="0 0 375 374.999991" height="500" preserveAspectRatio="xMidYMid meet" version="1.0"><defs><g/><clipPath id="828c5d9cd8"><path d="M 122.113281 131 L 209 131 L 209 267.265625 L 122.113281 267.265625 Z M 122.113281 131 " clip-rule="nonzero"/></clipPath><clipPath id="4dafb687db"><path d="M 229.675781 151.128906 L 262.46875 151.128906 L 262.46875 203.5625 L 229.675781 203.5625 Z M 229.675781 151.128906 " clip-rule="nonzero"/></clipPath><clipPath id="7d50f8ac6b"><path d="M 259.253906 152.472656 L 262.46875 152.472656 L 262.46875 202 L 259.253906 202 Z M 259.253906 152.472656 " clip-rule="nonzero"/></clipPath><clipPath id="a74a85f3d0"><path d="M 246 151.128906 L 262.46875 151.128906 L 262.46875 203.5625 L 246 203.5625 Z M 246 151.128906 " clip-rule="nonzero"/></clipPath></defs><g clip-path="url(#828c5d9cd8)"><path fill="#69d1c5" d="M 152.785156 211.898438 L 127.671875 237.015625 C 120.734375 243.953125 120.734375 255.195312 127.671875 262.132812 C 134.605469 269.066406 145.847656 269.066406 152.785156 262.132812 L 203.023438 211.898438 C 209.960938 204.960938 209.960938 193.71875 203.023438 186.777344 L 152.785156 136.542969 C 145.847656 129.605469 134.605469 129.605469 127.671875 136.542969 C 120.734375 143.480469 120.734375 154.726562 127.671875 161.664062 L 152.785156 186.777344 C 159.722656 193.71875 159.722656 204.960938 152.785156 211.898438 " fill-opacity="1" fill-rule="nonzero"/></g><path fill="#69d1c5" d="M 126.921875 204.109375 L 117.367188 213.660156 C 114.734375 216.296875 114.734375 220.570312 117.367188 223.207031 C 120.003906 225.84375 124.285156 225.84375 126.921875 223.207031 L 146.011719 204.109375 C 148.648438 201.472656 148.648438 197.199219 146.011719 194.5625 L 126.921875 175.464844 C 124.285156 172.828125 120.003906 172.828125 117.367188 175.464844 C 114.734375 178.101562 114.734375 182.378906 117.367188 185.015625 L 126.921875 194.5625 C 129.550781 197.199219 129.550781 201.472656 126.921875 204.109375 " fill-opacity="1" fill-rule="nonzero"/><path fill="#2c7380" d="M 122.148438 225.179688 C 121.683594 225.179688 121.21875 225.132812 120.761719 225.039062 C 122.003906 224.777344 123.1875 224.171875 124.152344 223.207031 L 143.25 204.109375 C 145.878906 201.472656 145.878906 197.199219 143.25 194.5625 L 124.152344 175.464844 C 123.1875 174.503906 122.003906 173.894531 120.761719 173.636719 C 121.21875 173.542969 121.683594 173.496094 122.148438 173.496094 C 123.875 173.496094 125.601562 174.152344 126.921875 175.464844 L 146.011719 194.5625 C 147.328125 195.878906 147.992188 197.609375 147.992188 199.335938 C 147.992188 201.0625 147.328125 202.792969 146.011719 204.109375 L 126.921875 223.207031 C 125.601562 224.523438 123.875 225.179688 122.148438 225.179688 " fill-opacity="1" fill-rule="nonzero"/><path fill="#2c7380" d="M 194.417969 220.503906 L 169.394531 195.476562 C 162.460938 188.539062 162.460938 177.292969 169.394531 170.355469 L 177.996094 161.753906 L 203.023438 186.777344 C 206.492188 190.246094 208.226562 194.792969 208.226562 199.335938 C 208.226562 203.882812 206.492188 208.425781 203.023438 211.898438 L 194.417969 220.503906 " fill-opacity="1" fill-rule="nonzero"/><path fill="#ed6b86" d="M 225.101562 164.882812 L 250.222656 139.761719 C 257.160156 132.832031 257.160156 121.582031 250.222656 114.648438 C 243.285156 107.710938 232.039062 107.710938 225.101562 114.648438 L 174.867188 164.882812 C 167.933594 171.816406 167.933594 183.066406 174.867188 190 L 225.101562 240.234375 C 232.039062 247.171875 243.285156 247.171875 250.222656 240.234375 C 257.160156 233.300781 257.160156 222.050781 250.222656 215.117188 L 225.101562 190 C 218.167969 183.066406 218.167969 171.816406 225.101562 164.882812 " fill-opacity="1" fill-rule="nonzero"/><g clip-path="url(#4dafb687db)"><path fill="#ed6b86" d="M 250.972656 172.667969 L 260.519531 163.117188 C 263.15625 160.480469 263.15625 156.207031 260.519531 153.570312 C 257.882812 150.933594 253.609375 150.933594 250.972656 153.570312 L 231.875 172.667969 C 229.238281 175.304688 229.238281 179.578125 231.875 182.214844 L 250.972656 201.3125 C 253.609375 203.949219 257.882812 203.949219 260.519531 201.3125 C 263.15625 198.675781 263.15625 194.398438 260.519531 191.761719 L 250.972656 182.214844 C 248.335938 179.578125 248.335938 175.304688 250.972656 172.667969 " fill-opacity="1" fill-rule="nonzero"/></g><g clip-path="url(#7d50f8ac6b)"><path fill="#d3d2d2" d="M 259.734375 201.988281 C 260.007812 201.785156 260.273438 201.558594 260.519531 201.3125 C 261.839844 199.992188 262.496094 198.265625 262.496094 196.539062 C 262.496094 198.265625 261.839844 199.992188 260.519531 201.3125 C 260.273438 201.558594 260.007812 201.785156 259.734375 201.988281 M 260.519531 153.570312 C 260.289062 153.339844 260.042969 153.125 259.785156 152.929688 C 260.042969 153.125 260.289062 153.339844 260.519531 153.570312 " fill-opacity="1" fill-rule="nonzero"/></g><g clip-path="url(#a74a85f3d0)"><path fill="#db4a68" d="M 255.753906 203.285156 C 255.285156 203.285156 254.824219 203.238281 254.367188 203.140625 C 255.605469 202.882812 256.785156 202.273438 257.753906 201.3125 C 260.390625 198.675781 260.390625 194.398438 257.753906 191.761719 L 248.203125 182.214844 C 245.570312 179.578125 245.570312 175.304688 248.203125 172.667969 L 257.753906 163.117188 C 260.390625 160.480469 260.390625 156.207031 257.753906 153.570312 C 256.785156 152.605469 255.605469 152 254.367188 151.738281 C 254.824219 151.644531 255.285156 151.597656 255.753906 151.597656 C 257.171875 151.597656 258.59375 152.042969 259.785156 152.929688 C 260.042969 153.125 260.289062 153.339844 260.519531 153.570312 C 261.839844 154.890625 262.496094 156.617188 262.496094 158.34375 C 262.496094 160.074219 261.839844 161.800781 260.519531 163.117188 L 250.972656 172.667969 C 249.65625 173.984375 248.992188 175.714844 248.992188 177.441406 C 248.992188 179.167969 249.65625 180.898438 250.972656 182.214844 L 260.519531 191.761719 C 261.839844 193.082031 262.496094 194.808594 262.496094 196.539062 C 262.496094 198.265625 261.839844 199.992188 260.519531 201.3125 C 260.273438 201.558594 260.007812 201.785156 259.734375 201.988281 C 258.550781 202.855469 257.148438 203.285156 255.753906 203.285156 " fill-opacity="1" fill-rule="nonzero"/></g><g fill="#373636" fill-opacity="1"><g transform="translate(90.148009, 103.124951)"><g><path d="M 41.578125 -43.5625 L 41.578125 0 L 30.96875 0 L 30.96875 -17.9375 L 14.453125 -17.9375 L 14.453125 0 L 3.84375 0 L 3.84375 -43.5625 L 14.453125 -43.5625 L 14.453125 -26.5 L 30.96875 -26.5 L 30.96875 -43.5625 Z M 41.578125 -43.5625 "/></g></g></g><g fill="#373636" fill-opacity="1"><g transform="translate(131.982442, 103.124951)"><g><path d="M 1.734375 -17.375 C 1.734375 -20.9375 2.40625 -24.0625 3.75 -26.75 C 5.09375 -29.4375 6.921875 -31.503906 9.234375 -32.953125 C 11.554688 -34.398438 14.144531 -35.125 17 -35.125 C 19.445312 -35.125 21.585938 -34.625 23.421875 -33.625 C 25.265625 -32.632812 26.6875 -31.335938 27.6875 -29.734375 L 27.6875 -34.625 L 38.296875 -34.625 L 38.296875 0 L 27.6875 0 L 27.6875 -4.90625 C 26.644531 -3.289062 25.203125 -1.984375 23.359375 -0.984375 C 21.523438 0.00390625 19.382812 0.5 16.9375 0.5 C 14.125 0.5 11.554688 -0.234375 9.234375 -1.703125 C 6.921875 -3.171875 5.09375 -5.257812 3.75 -7.96875 C 2.40625 -10.6875 1.734375 -13.820312 1.734375 -17.375 Z M 27.6875 -17.3125 C 27.6875 -19.957031 26.953125 -22.046875 25.484375 -23.578125 C 24.015625 -25.109375 22.222656 -25.875 20.109375 -25.875 C 17.992188 -25.875 16.203125 -25.117188 14.734375 -23.609375 C 13.265625 -22.097656 12.53125 -20.019531 12.53125 -17.375 C 12.53125 -14.726562 13.265625 -12.628906 14.734375 -11.078125 C 16.203125 -9.523438 17.992188 -8.75 20.109375 -8.75 C 22.222656 -8.75 24.015625 -9.515625 25.484375 -11.046875 C 26.953125 -12.578125 27.6875 -14.664062 27.6875 -17.3125 Z M 27.6875 -17.3125 "/></g></g></g><g fill="#373636" fill-opacity="1"><g transform="translate(170.5893, 103.124951)"><g><path d="M 14.453125 -29.734375 C 15.492188 -31.335938 16.921875 -32.632812 18.734375 -33.625 C 20.554688 -34.625 22.691406 -35.125 25.140625 -35.125 C 27.992188 -35.125 30.578125 -34.398438 32.890625 -32.953125 C 35.210938 -31.503906 37.046875 -29.4375 38.390625 -26.75 C 39.734375 -24.0625 40.40625 -20.9375 40.40625 -17.375 C 40.40625 -13.820312 39.734375 -10.6875 38.390625 -7.96875 C 37.046875 -5.257812 35.210938 -3.171875 32.890625 -1.703125 C 30.578125 -0.234375 27.992188 0.5 25.140625 0.5 C 22.734375 0.5 20.609375 0.00390625 18.765625 -0.984375 C 16.929688 -1.984375 15.492188 -3.269531 14.453125 -4.84375 L 14.453125 16.515625 L 3.84375 16.515625 L 3.84375 -34.625 L 14.453125 -34.625 Z M 29.609375 -17.375 C 29.609375 -20.019531 28.875 -22.097656 27.40625 -23.609375 C 25.9375 -25.117188 24.125 -25.875 21.96875 -25.875 C 19.863281 -25.875 18.078125 -25.109375 16.609375 -23.578125 C 15.140625 -22.046875 14.40625 -19.957031 14.40625 -17.3125 C 14.40625 -14.664062 15.140625 -12.578125 16.609375 -11.046875 C 18.078125 -9.515625 19.863281 -8.75 21.96875 -8.75 C 24.082031 -8.75 25.882812 -9.523438 27.375 -11.078125 C 28.863281 -12.628906 29.609375 -14.726562 29.609375 -17.375 Z M 29.609375 -17.375 "/></g></g></g><g fill="#373636" fill-opacity="1"><g transform="translate(209.196158, 103.124951)"><g><path d="M 14.453125 -29.734375 C 15.492188 -31.335938 16.921875 -32.632812 18.734375 -33.625 C 20.554688 -34.625 22.691406 -35.125 25.140625 -35.125 C 27.992188 -35.125 30.578125 -34.398438 32.890625 -32.953125 C 35.210938 -31.503906 37.046875 -29.4375 38.390625 -26.75 C 39.734375 -24.0625 40.40625 -20.9375 40.40625 -17.375 C 40.40625 -13.820312 39.734375 -10.6875 38.390625 -7.96875 C 37.046875 -5.257812 35.210938 -3.171875 32.890625 -1.703125 C 30.578125 -0.234375 27.992188 0.5 25.140625 0.5 C 22.734375 0.5 20.609375 0.00390625 18.765625 -0.984375 C 16.929688 -1.984375 15.492188 -3.269531 14.453125 -4.84375 L 14.453125 16.515625 L 3.84375 16.515625 L 3.84375 -34.625 L 14.453125 -34.625 Z M 29.609375 -17.375 C 29.609375 -20.019531 28.875 -22.097656 27.40625 -23.609375 C 25.9375 -25.117188 24.125 -25.875 21.96875 -25.875 C 19.863281 -25.875 18.078125 -25.109375 16.609375 -23.578125 C 15.140625 -22.046875 14.40625 -19.957031 14.40625 -17.3125 C 14.40625 -14.664062 15.140625 -12.578125 16.609375 -11.046875 C 18.078125 -9.515625 19.863281 -8.75 21.96875 -8.75 C 24.082031 -8.75 25.882812 -9.523438 27.375 -11.078125 C 28.863281 -12.628906 29.609375 -14.726562 29.609375 -17.375 Z M 29.609375 -17.375 "/></g></g></g><g fill="#373636" fill-opacity="1"><g transform="translate(247.803016, 103.124951)"><g><path d="M 39.21875 -34.625 L 17.5 16.453125 L 6.078125 16.453125 L 14.03125 -1.171875 L -0.0625 -34.625 L 11.796875 -34.625 L 19.796875 -12.96875 L 27.734375 -34.625 Z M 39.21875 -34.625 "/></g></g></g><g fill="#373636" fill-opacity="1"><g transform="translate(100.209976, 312.607827)"><g><path d="M 2.046875 -21.84375 C 2.046875 -26.144531 2.976562 -29.984375 4.84375 -33.359375 C 6.707031 -36.734375 9.300781 -39.359375 12.625 -41.234375 C 15.957031 -43.117188 19.734375 -44.0625 23.953125 -44.0625 C 29.128906 -44.0625 33.554688 -42.695312 37.234375 -39.96875 C 40.921875 -37.238281 43.382812 -33.515625 44.625 -28.796875 L 32.953125 -28.796875 C 32.085938 -30.617188 30.859375 -32.003906 29.265625 -32.953125 C 27.671875 -33.898438 25.859375 -34.375 23.828125 -34.375 C 20.554688 -34.375 17.90625 -33.238281 15.875 -30.96875 C 13.851562 -28.695312 12.84375 -25.65625 12.84375 -21.84375 C 12.84375 -18.039062 13.851562 -15 15.875 -12.71875 C 17.90625 -10.445312 20.554688 -9.3125 23.828125 -9.3125 C 25.859375 -9.3125 27.671875 -9.785156 29.265625 -10.734375 C 30.859375 -11.691406 32.085938 -13.078125 32.953125 -14.890625 L 44.625 -14.890625 C 43.382812 -10.171875 40.921875 -6.457031 37.234375 -3.75 C 33.554688 -1.039062 29.128906 0.3125 23.953125 0.3125 C 19.734375 0.3125 15.957031 -0.628906 12.625 -2.515625 C 9.300781 -4.398438 6.707031 -7.015625 4.84375 -10.359375 C 2.976562 -13.710938 2.046875 -17.539062 2.046875 -21.84375 Z M 2.046875 -21.84375 "/></g></g></g><g fill="#373636" fill-opacity="1"><g transform="translate(143.968542, 312.607827)"><g><path d="M 14.453125 -45.921875 L 14.453125 0 L 3.84375 0 L 3.84375 -45.921875 Z M 14.453125 -45.921875 "/></g></g></g><g fill="#373636" fill-opacity="1"><g transform="translate(158.740944, 312.607827)"><g><path d="M 9.1875 -38.234375 C 7.320312 -38.234375 5.800781 -38.78125 4.625 -39.875 C 3.445312 -40.96875 2.859375 -42.320312 2.859375 -43.9375 C 2.859375 -45.59375 3.445312 -46.96875 4.625 -48.0625 C 5.800781 -49.164062 7.320312 -49.71875 9.1875 -49.71875 C 11.007812 -49.71875 12.507812 -49.164062 13.6875 -48.0625 C 14.863281 -46.96875 15.453125 -45.59375 15.453125 -43.9375 C 15.453125 -42.320312 14.863281 -40.96875 13.6875 -39.875 C 12.507812 -38.78125 11.007812 -38.234375 9.1875 -38.234375 Z M 14.453125 -34.625 L 14.453125 0 L 3.84375 0 L 3.84375 -34.625 Z M 14.453125 -34.625 "/></g></g></g><g fill="#373636" fill-opacity="1"><g transform="translate(173.513346, 312.607827)"><g><path d="M 1.734375 -17.3125 C 1.734375 -20.914062 2.46875 -24.0625 3.9375 -26.75 C 5.40625 -29.4375 7.453125 -31.503906 10.078125 -32.953125 C 12.710938 -34.398438 15.722656 -35.125 19.109375 -35.125 C 23.453125 -35.125 27.082031 -33.984375 30 -31.703125 C 32.914062 -29.429688 34.832031 -26.226562 35.75 -22.09375 L 24.453125 -22.09375 C 23.503906 -24.738281 21.660156 -26.0625 18.921875 -26.0625 C 16.984375 -26.0625 15.429688 -25.304688 14.265625 -23.796875 C 13.109375 -22.285156 12.53125 -20.125 12.53125 -17.3125 C 12.53125 -14.5 13.109375 -12.335938 14.265625 -10.828125 C 15.429688 -9.316406 16.984375 -8.5625 18.921875 -8.5625 C 21.660156 -8.5625 23.503906 -9.882812 24.453125 -12.53125 L 35.75 -12.53125 C 34.832031 -8.476562 32.90625 -5.289062 29.96875 -2.96875 C 27.03125 -0.65625 23.410156 0.5 19.109375 0.5 C 15.722656 0.5 12.710938 -0.222656 10.078125 -1.671875 C 7.453125 -3.117188 5.40625 -5.1875 3.9375 -7.875 C 2.46875 -10.570312 1.734375 -13.71875 1.734375 -17.3125 Z M 1.734375 -17.3125 "/></g></g></g><g fill="#373636" fill-opacity="1"><g transform="translate(207.527105, 312.607827)"><g><path d="M 25.015625 0 L 14.453125 -14.515625 L 14.453125 0 L 3.84375 0 L 3.84375 -45.921875 L 14.453125 -45.921875 L 14.453125 -20.546875 L 24.953125 -34.625 L 38.046875 -34.625 L 23.640625 -17.25 L 38.171875 0 Z M 25.015625 0 "/></g></g></g><g fill="#373636" fill-opacity="1"><g transform="translate(242.347747, 312.607827)"><g><path d="M 17.9375 0.5 C 14.914062 0.5 12.222656 -0.015625 9.859375 -1.046875 C 7.503906 -2.085938 5.644531 -3.503906 4.28125 -5.296875 C 2.914062 -7.097656 2.148438 -9.117188 1.984375 -11.359375 L 12.46875 -11.359375 C 12.59375 -10.160156 13.148438 -9.1875 14.140625 -8.4375 C 15.140625 -7.695312 16.363281 -7.328125 17.8125 -7.328125 C 19.132812 -7.328125 20.15625 -7.582031 20.875 -8.09375 C 21.601562 -8.613281 21.96875 -9.285156 21.96875 -10.109375 C 21.96875 -11.109375 21.445312 -11.84375 20.40625 -12.3125 C 19.375 -12.789062 17.703125 -13.320312 15.390625 -13.90625 C 12.910156 -14.476562 10.84375 -15.082031 9.1875 -15.71875 C 7.53125 -16.363281 6.101562 -17.378906 4.90625 -18.765625 C 3.707031 -20.160156 3.109375 -22.035156 3.109375 -24.390625 C 3.109375 -26.378906 3.65625 -28.1875 4.75 -29.8125 C 5.84375 -31.445312 7.453125 -32.738281 9.578125 -33.6875 C 11.710938 -34.644531 14.25 -35.125 17.1875 -35.125 C 21.53125 -35.125 24.953125 -34.046875 27.453125 -31.890625 C 29.960938 -29.742188 31.40625 -26.890625 31.78125 -23.328125 L 21.96875 -23.328125 C 21.800781 -24.535156 21.269531 -25.488281 20.375 -26.1875 C 19.488281 -26.894531 18.320312 -27.25 16.875 -27.25 C 15.632812 -27.25 14.679688 -27.007812 14.015625 -26.53125 C 13.359375 -26.050781 13.03125 -25.398438 13.03125 -24.578125 C 13.03125 -23.585938 13.554688 -22.84375 14.609375 -22.34375 C 15.671875 -21.84375 17.316406 -21.347656 19.546875 -20.859375 C 22.109375 -20.191406 24.195312 -19.535156 25.8125 -18.890625 C 27.425781 -18.253906 28.84375 -17.222656 30.0625 -15.796875 C 31.289062 -14.367188 31.925781 -12.453125 31.96875 -10.046875 C 31.96875 -8.023438 31.394531 -6.21875 30.25 -4.625 C 29.113281 -3.03125 27.476562 -1.773438 25.34375 -0.859375 C 23.21875 0.046875 20.75 0.5 17.9375 0.5 Z M 17.9375 0.5 "/></g></g></g></svg>